<svg width="51" height="51" viewBox="0 0 51 51" fill="none" xmlns="http://www.w3.org/2000/svg">
<path d="M17.4872 40.9704L16.6028 38.496M15.5094 35.4373L15.2636 34.7495M10.6782 21.9217L10.0286 20.1044M7.02859 11.7117L5.49363 7.41753M4.08716 3.48285L3.78261 2.63086M3.78198 2.63058L4.08626 3.48244M5.49147 7.41655L7.02859 11.72M10.0286 20.1189L10.6782 21.9376M15.2539 34.748L15.4997 35.4362M16.5926 38.496L17.4764 40.9704M10.6782 10.946V12.2593L11.98 12.4328L48.7171 17.3311C48.8785 17.3527 48.999 17.4903 48.999 17.6531V28.6019C48.999 30.0797 48.8158 31.6885 48.1913 32.9855C47.5564 34.3041 46.4636 35.2975 44.6955 35.494L44.6776 35.496H16.5577C16.2137 35.496 15.8622 35.4773 15.5094 35.4373L15.2636 34.7495C15.6926 34.8153 16.1279 34.8464 16.5577 34.8464H44.5474H44.6514L44.7545 34.832C45.4073 34.741 46.0069 34.5139 46.5229 34.1065C47.0286 33.7073 47.3645 33.2053 47.606 32.7037L46.2545 32.0529L47.606 32.7037C48.168 31.5365 48.3494 30.0427 48.3494 28.6019V19.2507V17.9375L47.0477 17.7639L12.3764 13.1411L10.6782 12.9146V14.6279V21.9217L10.0286 20.1044V7.14938V6.18351L9.1493 5.78383L4.08716 3.48285L3.78261 2.63086L10.4878 5.67867C10.6038 5.73138 10.6782 5.84699 10.6782 5.97436V10.946ZM15.2539 34.748L15.4997 35.4362C14.5971 35.3328 13.6867 35.09 12.8742 34.6644L10.6782 33.5143V35.9932V39.9304L10.6769 39.9451L10.6782 39.9452L10.6769 39.9451C10.6222 40.5468 10.7721 41.4833 11.4039 42.2988C11.8025 42.8133 12.4067 43.2972 13.3077 43.6155C13.1941 43.8016 13.0912 43.9949 12.9999 44.1946C12.0454 43.8404 11.3628 43.3064 10.8904 42.6967C10.1658 41.7614 9.97301 40.6915 10.0249 39.9483L10.0286 39.8961V39.8438V20.1189L10.6782 21.9376V29.6968C10.6782 31.6408 11.4529 32.9096 12.551 33.7036C13.324 34.2626 14.2722 34.5962 15.2539 34.748ZM7.02859 11.72L5.49147 7.41655L5.49363 7.41753L7.02859 11.7117V11.72ZM16.6028 38.496L17.4872 40.9704H17.4764L16.5926 38.496H16.6028ZM16.4265 44.5379C16.8595 44.1838 17.4125 43.9711 18.0148 43.9704C18.0158 43.9704 18.0168 43.9704 18.0178 43.9704C18.0188 43.9704 18.0198 43.9704 18.0209 43.9704C18.1845 43.9706 18.3446 43.9864 18.4996 44.0165C18.9447 44.1029 19.348 44.3068 19.6759 44.5944C20.2009 45.0553 20.5324 45.7314 20.5324 46.485C20.5324 47.8737 19.4066 48.9995 18.0178 48.9995C16.6291 48.9995 15.5033 47.8737 15.5033 46.485C15.5033 45.7402 15.8271 45.071 16.3416 44.6105C16.3694 44.5857 16.3977 44.5615 16.4265 44.5379ZM23.2091 44.62C23.1287 44.3964 23.0344 44.1795 22.927 43.9704H39.3856C39.2783 44.1795 39.184 44.3964 39.1037 44.62H23.2091ZM2.18987 2.62045L1.56916 3.986L2.18987 2.62045C2.02656 2.54622 1.95435 2.35366 2.02858 2.19036L0.663033 1.56965L2.02858 2.19036C2.10281 2.02705 2.29537 1.95484 2.45867 2.02907L3.78198 2.63058L4.08626 3.48244L2.18987 2.62045ZM46.8095 46.485C46.8095 47.8737 45.6837 48.9995 44.295 48.9995C42.9062 48.9995 41.7804 47.8737 41.7804 46.485C41.7804 45.0962 42.9062 43.9704 44.295 43.9704C45.6837 43.9704 46.8095 45.0962 46.8095 46.485Z" stroke="#F7F7F7" stroke-width="3"/>
</svg>
