<svg width="49" height="49" viewBox="0 0 49 49" fill="none" xmlns="http://www.w3.org/2000/svg">
<path d="M47.0037 24.0019C47.0037 36.7054 36.7054 47.0037 24.0019 47.0037C11.2983 47.0037 1 36.7054 1 24.0019C1 11.2983 11.2983 1 24.0019 1C36.7054 1 47.0037 11.2983 47.0037 24.0019Z" fill="#66C1A7" stroke="white" stroke-width="2"/>
<path d="M21.8586 11.1047C20.9219 12.8798 19.0799 16.4205 17.7642 18.9729C17.6205 19.2524 17.4748 19.5344 17.3297 19.8154L17.3289 19.8169C16.1487 22.1022 15.0046 24.3177 15.2426 24.4885C15.4591 24.6438 17.4477 22.9701 19.7424 21.0389L19.743 21.0384C20.282 20.5848 20.8379 20.1169 21.3917 19.6552C24.4492 17.2569 26.9159 15.1818 27.0443 14.8986C27.2364 14.6473 27.5026 14.281 27.5026 13.6327C27.5026 12.764 26.9273 11.2935 25.9468 9.84579C25.1949 8.73479 24.5236 7.95544 24.1034 7.95544C23.6833 7.95544 22.9864 8.96454 21.8586 11.1047Z" fill="white"/>
<path d="M24.8293 24.1946C25.3046 24.6679 27.5065 25.5298 31.131 26.9052C31.4609 27.0308 31.787 27.1551 32.1065 27.2769L32.1066 27.2769C34.7084 28.2687 36.8786 29.0959 37.2245 29.1576C37.7602 29.252 37.9294 29.1293 37.9294 28.6509C37.9294 28.3047 36.0005 25.3244 33.8045 21.9568C33.1287 20.9214 32.5144 19.9384 31.9736 19.073C30.757 17.1264 29.9126 15.7753 29.5776 15.7627C29.1792 15.7478 28.405 16.7129 27.352 18.0256C27.1259 18.3075 26.8869 18.6054 26.636 18.9131C26.4406 19.1532 26.2539 19.3798 26.077 19.5944C24.9436 20.9695 24.2129 21.8561 24.1798 22.6856C24.1443 23.5784 24.6892 24.0682 24.8099 24.1767C24.8188 24.1848 24.8254 24.1907 24.8293 24.1946Z" fill="white"/>
<path d="M14.2274 27.3699C13.8546 27.5084 13.3471 27.8892 13.1027 28.2166C12.8552 28.5407 12.0689 29.9067 11.3515 31.2474C10.6342 32.5882 10.0483 33.8974 10.0483 34.1587C10.0483 34.4199 10.144 34.6727 10.4399 34.7976C10.7358 34.9224 13.8608 34.3286 17.5668 33.5512C21.2728 32.7738 25.9938 31.7667 28.0614 31.3135C30.129 30.8603 32.7342 30.1923 33.0788 30.0507C33.1552 30.0193 33.5372 29.8205 33.0788 29.7054C32.9666 29.6674 32.105 29.5454 30.8084 29.3617C29.1022 29.1201 26.6428 28.7718 24.1455 28.3676C19.7534 27.6563 15.8752 27.0835 15.5306 27.0961C15.186 27.1087 14.6002 27.2315 14.2274 27.3699Z" fill="white"/>
</svg>
