<svg width="69" height="34" viewBox="0 0 69 34" fill="none" xmlns="http://www.w3.org/2000/svg">
<path d="M49.212 7.449C50.742 7.449 51.912 7.818 52.722 8.556C53.532 9.294 53.937 10.329 53.937 11.661V11.931C53.937 12.759 53.757 13.488 53.397 14.118C53.055 14.73 52.542 15.198 51.858 15.522C52.596 15.828 53.181 16.323 53.613 17.007C54.063 17.691 54.288 18.465 54.288 19.329V19.599C54.288 21.021 53.856 22.164 52.992 23.028C52.146 23.892 50.913 24.324 49.293 24.324C48.447 24.324 47.286 24.207 45.81 23.973V22.056C47.178 22.29 48.339 22.407 49.293 22.407C50.157 22.407 50.823 22.173 51.291 21.705C51.759 21.219 51.993 20.562 51.993 19.734V19.302C51.993 17.466 51.048 16.548 49.158 16.548H46.755V14.712H49.158C50.004 14.712 50.625 14.505 51.021 14.091C51.435 13.659 51.642 12.975 51.642 12.039V11.526C51.642 10.068 50.832 9.339 49.212 9.339C48.42 9.339 47.286 9.465 45.81 9.717V7.8C47.286 7.566 48.42 7.449 49.212 7.449ZM62.2441 7.449C63.8641 7.449 65.0971 7.917 65.9431 8.853C66.8071 9.771 67.2391 11.148 67.2391 12.984V18.789C67.2391 20.625 66.8071 22.011 65.9431 22.947C65.0971 23.865 63.8641 24.324 62.2441 24.324C60.6241 24.324 59.3821 23.865 58.5181 22.947C57.6721 22.011 57.2491 20.625 57.2491 18.789V12.984C57.2491 11.148 57.6721 9.771 58.5181 8.853C59.3821 7.917 60.6241 7.449 62.2441 7.449ZM62.2441 9.393C60.4441 9.393 59.5441 10.518 59.5441 12.768V19.005C59.5441 21.255 60.4441 22.38 62.2441 22.38C64.0441 22.38 64.9441 21.255 64.9441 19.005V12.768C64.9441 10.518 64.0441 9.393 62.2441 9.393Z" fill="#2B364A"/>
<path d="M52.722 8.556L52.5873 8.70384L52.722 8.556ZM53.397 14.118L53.2233 14.0188L53.2224 14.0204L53.397 14.118ZM51.858 15.522L51.7724 15.3413L51.3651 15.5342L51.7814 15.7067L51.858 15.522ZM53.613 17.007L53.4439 17.1138L53.4459 17.1169L53.613 17.007ZM52.992 23.028L52.8506 22.8866L52.8491 22.8881L52.992 23.028ZM45.81 23.973H45.61V24.1438L45.7787 24.1705L45.81 23.973ZM45.81 22.056L45.8437 21.8589L45.61 21.8189V22.056H45.81ZM51.291 21.705L51.4324 21.8464L51.4351 21.8437L51.291 21.705ZM46.755 16.548H46.555V16.748H46.755V16.548ZM46.755 14.712V14.512H46.555V14.712H46.755ZM51.021 14.091L50.8766 13.9526L50.8765 13.9528L51.021 14.091ZM45.81 9.717H45.61V9.95404L45.8437 9.91415L45.81 9.717ZM45.81 7.8L45.7787 7.60247L45.61 7.62921V7.8H45.81ZM49.212 7.649C50.712 7.649 51.8265 8.01069 52.5873 8.70384L52.8567 8.40816C51.9975 7.62531 50.772 7.249 49.212 7.249V7.649ZM52.5873 8.70384C53.3469 9.39592 53.737 10.3721 53.737 11.661H54.137C54.137 10.2859 53.7171 9.19208 52.8567 8.40816L52.5873 8.70384ZM53.737 11.661V11.931H54.137V11.661H53.737ZM53.737 11.931C53.737 12.7292 53.5638 13.423 53.2234 14.0188L53.5706 14.2172C53.9502 13.553 54.137 12.7888 54.137 11.931H53.737ZM53.2224 14.0204C52.9023 14.5932 52.422 15.0336 51.7724 15.3413L51.9436 15.7027C52.662 15.3624 53.2077 14.8668 53.5716 14.2156L53.2224 14.0204ZM51.7814 15.7067C52.4807 15.9967 53.0337 16.4642 53.4439 17.1138L53.7821 16.9002C53.3283 16.1818 52.7113 15.6593 51.9346 15.3373L51.7814 15.7067ZM53.4459 17.1169C53.8732 17.7664 54.088 18.5018 54.088 19.329H54.488C54.488 18.4282 54.2528 17.6156 53.7801 16.8971L53.4459 17.1169ZM54.088 19.329V19.599H54.488V19.329H54.088ZM54.088 19.599C54.088 20.9773 53.6709 22.0662 52.8506 22.8866L53.1334 23.1694C54.0411 22.2618 54.488 21.0647 54.488 19.599H54.088ZM52.8491 22.8881C52.0522 23.702 50.8781 24.124 49.293 24.124V24.524C50.9479 24.524 52.2398 24.082 53.1349 23.1679L52.8491 22.8881ZM49.293 24.124C48.4625 24.124 47.3135 24.0089 45.8413 23.7755L45.7787 24.1705C47.2585 24.4051 48.4315 24.524 49.293 24.524V24.124ZM46.01 23.973V22.056H45.61V23.973H46.01ZM45.7763 22.2531C47.1509 22.4883 48.3239 22.607 49.293 22.607V22.207C48.3541 22.207 47.2051 22.0917 45.8437 21.8589L45.7763 22.2531ZM49.293 22.607C50.1932 22.607 50.9165 22.3624 51.4324 21.8464L51.1496 21.5636C50.7295 21.9836 50.1208 22.207 49.293 22.207V22.607ZM51.4351 21.8437C51.9467 21.3124 52.193 20.6013 52.193 19.734H51.793C51.793 20.5227 51.5713 21.1256 51.1469 21.5663L51.4351 21.8437ZM52.193 19.734V19.302H51.793V19.734H52.193ZM52.193 19.302C52.193 18.3517 51.9481 17.6025 51.4236 17.093C50.9002 16.5846 50.1324 16.348 49.158 16.348V16.748C50.0736 16.748 50.7233 16.9704 51.1449 17.38C51.5654 17.7885 51.793 18.4163 51.793 19.302H52.193ZM49.158 16.348H46.755V16.748H49.158V16.348ZM46.955 16.548V14.712H46.555V16.548H46.955ZM46.755 14.912H49.158V14.512H46.755V14.912ZM49.158 14.912C50.0325 14.912 50.7169 14.6982 51.1655 14.2292L50.8765 13.9528C50.5331 14.3118 49.9755 14.512 49.158 14.512V14.912ZM51.1654 14.2294C51.6307 13.7439 51.842 12.9985 51.842 12.039H51.442C51.442 12.9515 51.2393 13.5741 50.8766 13.9526L51.1654 14.2294ZM51.842 12.039V11.526H51.442V12.039H51.842ZM51.842 11.526C51.842 10.7604 51.6284 10.1512 51.1683 9.73709C50.7122 9.32663 50.0479 9.139 49.212 9.139V9.539C49.9961 9.539 50.5468 9.71587 50.9007 10.0344C51.2506 10.3493 51.442 10.8336 51.442 11.526H51.842ZM49.212 9.139C48.4028 9.139 47.2555 9.26731 45.7763 9.51985L45.8437 9.91415C47.3165 9.66269 48.4372 9.539 49.212 9.539V9.139ZM46.01 9.717V7.8H45.61V9.717H46.01ZM45.8413 7.99753C47.3143 7.76401 48.436 7.649 49.212 7.649V7.249C48.404 7.249 47.2577 7.36799 45.7787 7.60247L45.8413 7.99753ZM65.9431 8.853L65.7947 8.98713L65.7975 8.99007L65.9431 8.853ZM65.9431 22.947L65.7962 22.8113L65.7961 22.8115L65.9431 22.947ZM58.5181 22.947L58.3697 23.0811L58.3725 23.0841L58.5181 22.947ZM58.5181 8.853L58.3712 8.71734L58.3711 8.71746L58.5181 8.853ZM62.2441 7.649C63.8247 7.649 64.9968 8.10425 65.7948 8.98711L66.0915 8.71889C65.1975 7.72974 63.9036 7.249 62.2441 7.249V7.649ZM65.7975 8.99007C66.6135 9.85705 67.0391 11.1759 67.0391 12.984H67.4391C67.4391 11.1201 67.0008 9.68495 66.0888 8.71593L65.7975 8.99007ZM67.0391 12.984V18.789H67.4391V12.984H67.0391ZM67.0391 18.789C67.0391 20.5967 66.6136 21.9258 65.7962 22.8113L66.0901 23.0827C67.0007 22.0962 67.4391 20.6533 67.4391 18.789H67.0391ZM65.7961 22.8115C64.9984 23.677 63.8258 24.124 62.2441 24.124V24.524C63.9024 24.524 65.1959 24.053 66.0902 23.0825L65.7961 22.8115ZM62.2441 24.124C60.6627 24.124 59.4799 23.6771 58.6638 22.8099L58.3725 23.0841C59.2843 24.0529 60.5856 24.524 62.2441 24.524V24.124ZM58.6665 22.8129C57.8661 21.9273 57.4491 20.5977 57.4491 18.789H57.0491C57.0491 20.6523 57.4782 22.0947 58.3698 23.0811L58.6665 22.8129ZM57.4491 18.789V12.984H57.0491V18.789H57.4491ZM57.4491 12.984C57.4491 11.175 57.8663 9.85547 58.6652 8.98853L58.3711 8.71746C57.478 9.68653 57.0491 11.121 57.0491 12.984H57.4491ZM58.6651 8.98865C59.4815 8.10419 60.6638 7.649 62.2441 7.649V7.249C60.5845 7.249 59.2828 7.72981 58.3712 8.71734L58.6651 8.98865ZM62.2441 9.193C61.3 9.193 60.5602 9.49026 60.063 10.1118C59.5725 10.7248 59.3441 11.6216 59.3441 12.768H59.7441C59.7441 11.6644 59.9657 10.8737 60.3753 10.3617C60.7781 9.85824 61.3883 9.593 62.2441 9.593V9.193ZM59.3441 12.768V19.005H59.7441V12.768H59.3441ZM59.3441 19.005C59.3441 20.1514 59.5725 21.0482 60.063 21.6612C60.5602 22.2827 61.3 22.58 62.2441 22.58V22.18C61.3883 22.18 60.7781 21.9148 60.3753 21.4113C59.9657 20.8993 59.7441 20.1086 59.7441 19.005H59.3441ZM62.2441 22.58C63.1883 22.58 63.9281 22.2827 64.4253 21.6612C64.9157 21.0482 65.1441 20.1514 65.1441 19.005H64.7441C64.7441 20.1086 64.5225 20.8993 64.113 21.4113C63.7102 21.9148 63.1 22.18 62.2441 22.18V22.58ZM65.1441 19.005V12.768H64.7441V19.005H65.1441ZM65.1441 12.768C65.1441 11.6216 64.9157 10.7248 64.4253 10.1118C63.9281 9.49026 63.1883 9.193 62.2441 9.193V9.593C63.1 9.593 63.7102 9.85824 64.113 10.3617C64.5225 10.8737 64.7441 11.6644 64.7441 12.768H65.1441Z" fill="#2B364A"/>
<path d="M32.0037 16.5019C32.0037 25.0633 25.0633 32.0037 16.5019 32.0037C7.94042 32.0037 1 25.0633 1 16.5019C1 7.94042 7.94042 1 16.5019 1C25.0633 1 32.0037 7.94042 32.0037 16.5019Z" fill="#66C1A7" stroke="#6AA292" stroke-width="2"/>
<path d="M15.0574 7.80997C14.4262 9.00626 13.1848 11.3925 12.298 13.1127C12.2012 13.301 12.103 13.4911 12.0052 13.6805L12.0047 13.6815C11.2093 15.2216 10.4382 16.7148 10.5987 16.8298C10.7446 16.9345 12.0848 15.8066 13.6312 14.505L13.6316 14.5047C13.9949 14.199 14.3696 13.8836 14.7428 13.5725C16.8034 11.9562 18.4657 10.5577 18.5523 10.3668C18.6817 10.1975 18.8612 9.95063 18.8612 9.51368C18.8612 8.92826 18.4734 7.93724 17.8126 6.96154C17.3059 6.21279 16.8535 5.68756 16.5703 5.68756C16.2872 5.68756 15.8175 6.36763 15.0574 7.80997Z" fill="white"/>
<path d="M17.0595 16.6318C17.3798 16.9507 18.8637 17.5316 21.3065 18.4585C21.5288 18.5432 21.7486 18.627 21.9639 18.7091L21.964 18.7091C23.7174 19.3775 25.18 19.935 25.4131 19.9765C25.7742 20.0402 25.8882 19.9574 25.8882 19.635C25.8882 19.4017 24.5882 17.3932 23.1082 15.1236C22.6528 14.4258 22.2388 13.7633 21.8743 13.1801C21.0544 11.8682 20.4854 10.9576 20.2596 10.9492C19.9911 10.9391 19.4693 11.5896 18.7597 12.4742C18.6073 12.6642 18.4462 12.865 18.2771 13.0724C18.1454 13.2342 18.0196 13.3869 17.9004 13.5315C17.1365 14.4583 16.6441 15.0557 16.6218 15.6148C16.5978 16.2165 16.9651 16.5466 17.0464 16.6197C17.0524 16.6251 17.0569 16.6292 17.0595 16.6318Z" fill="white"/>
<path d="M9.91444 18.7717C9.6632 18.8651 9.32118 19.1217 9.1565 19.3423C8.98971 19.5608 8.45979 20.4813 7.97631 21.3849C7.49283 22.2885 7.09803 23.1709 7.09803 23.3469C7.09803 23.523 7.16252 23.6934 7.36194 23.7775C7.56135 23.8616 9.66742 23.4615 12.165 22.9376C14.6626 22.4137 17.8443 21.7349 19.2377 21.4295C20.6311 21.124 22.387 20.6739 22.6192 20.5784C22.6707 20.5573 22.9281 20.4233 22.6192 20.3457C22.5435 20.3201 21.9629 20.2379 21.089 20.1141C19.9392 19.9513 18.2817 19.7165 16.5987 19.4441C13.6387 18.9648 11.025 18.5787 10.7927 18.5872C10.5605 18.5957 10.1657 18.6784 9.91444 18.7717Z" fill="white"/>
</svg>
