<svg width="127" height="51" viewBox="0 0 127 51" fill="none" xmlns="http://www.w3.org/2000/svg">
<path d="M0.5 2.58329L0.500522 2.57187L0.500591 2.5704C0.52317 2.05013 0.606858 1.50001 1.006 1.09323L0.5 2.58329ZM0.5 2.58329V2.59472M0.5 2.58329V2.59472M0.5 2.59472V2.59737V33.2038V33.2062V33.2172M0.5 2.59472V33.2172M0.5 33.2172L0.50047 33.2277L0.5 33.2172ZM0.970401 34.9001L0.970384 34.9001C0.637778 34.421 0.525451 33.8709 0.500524 33.2291C0.500512 33.2288 0.500497 33.2285 0.500485 33.2282L0.970401 34.9001ZM0.970401 34.9001C1.29053 35.3612 1.76467 35.6822 2.34361 35.9844L2.35789 35.9935L2.35852 35.9939L2.47003 36.0653L2.47008 36.0654M0.970401 34.9001L2.47008 36.0654M2.47008 36.0654L2.89734 36.3389L2.8974 36.3389M2.47008 36.0654L2.8974 36.3389M2.8974 36.3389L3.15536 36.504C3.4976 36.723 3.93253 37.0013 4.43659 37.3237C5.71843 38.144 7.44714 39.2498 9.23419 40.3924L9.23421 40.3924M2.8974 36.3389L9.23421 40.3924M9.23421 40.3924C12.8066 42.6762 16.6174 45.1098 17.5547 45.698L17.5547 45.6981M9.23421 40.3924L17.5547 45.6981M17.5547 45.6981L17.5636 45.7034M17.5547 45.6981L17.5636 45.7034M17.5636 45.7034L17.566 45.7049L17.567 45.7055L17.5636 45.7034ZM19.6471 45.7329L19.6468 45.7331C19.3124 45.8918 18.9727 46.0202 18.6059 46.0245C18.6057 46.0245 18.6056 46.0245 18.6055 46.0245L18.5997 45.5246L19.6471 45.7329ZM19.6471 45.7329L19.6672 45.7234L19.7487 45.6846M19.6471 45.7329L19.7487 45.6846M19.7487 45.6846L19.8115 45.6198M19.7487 45.6846L19.8115 45.6198M19.8115 45.6198L19.8269 45.6039L19.8272 45.6036M19.8115 45.6198L19.8272 45.6036M19.8272 45.6036C21.1162 44.271 23.1034 42.3084 25.2823 40.1567C26.9291 38.5304 28.6834 36.7979 30.3216 35.154C32.2205 33.2487 33.9687 31.4574 35.2112 30.0892L35.2112 30.0892M19.8272 45.6036L35.2112 30.0892M35.2112 30.0892C35.8305 29.4071 36.3356 28.8175 36.6728 28.3657L36.673 28.3654M35.2112 30.0892L36.673 28.3654M36.673 28.3654C36.8387 28.1429 36.9814 27.9307 37.0745 27.7451L37.0748 27.7445M36.673 28.3654L37.0748 27.7445M37.0748 27.7445C37.1199 27.6542 37.1689 27.5405 37.1942 27.4167L37.1946 27.4143M37.0748 27.7445L37.1946 27.4143M37.1946 27.4143C37.2084 27.3449 37.2246 27.2262 37.1964 27.0899V2.86534V2.86264V2.84009M37.1946 27.4143L37.1964 2.84009M37.1964 2.84009L37.1952 2.82627M37.1964 2.84009L37.1952 2.82627M36.8666 1.57142C36.6136 1.16839 36.2133 0.867273 35.6799 0.576062L35.6525 0.561134L35.5405 0.5H35.413H35.3819H18.5448L2.6484 0.5H2.64264H2.61904L2.59555 0.502222L2.58979 0.502768L2.58967 0.502779C1.96523 0.562 1.39666 0.695091 1.00601 1.09322L36.8666 1.57142ZM36.8666 1.57142C37.122 1.97804 37.1762 2.40858 37.1952 2.82627M36.8666 1.57142L37.1952 2.82627" fill="#F7F7F7" stroke="#00B682"/>
<path d="M95.9333 36.7595H93.2306V50.8669H95.9333V42.2162H97.6901C98.0023 40.9265 98.1239 40.4181 98.1618 40.2531C98.2293 39.9603 98.2037 39.9537 97.082 39.9537H95.9333V36.7595Z" fill="#F1F5F2"/>
<path d="M115.799 42.7485V40.3529C114.594 40.3596 113.935 40.4647 113.557 40.5898C113.178 40.7163 112.519 41.0583 112.092 41.3511C111.663 41.6439 111.108 42.1829 110.857 42.5489C110.607 42.9149 110.297 43.4845 110.17 43.8132C109.978 44.315 109.939 44.9445 109.931 47.6728L109.92 50.9335L112.285 51L112.319 45.1456C112.324 44.4869 113.112 43.5633 113.588 43.2469C114.064 42.9304 114.593 42.859 115.089 42.8137L115.799 42.7485Z" fill="#F1F5F2"/>
<path d="M89.9535 40.6311C89.3778 40.5512 88.313 40.4913 87.5886 40.498C86.8643 40.5046 86.0589 40.5699 85.7981 40.6417C85.5372 40.7149 85.1156 40.9345 84.8602 41.1288C84.6034 41.3245 84.2548 41.7836 84.0845 42.1496C83.8737 42.6021 83.7723 43.0706 83.7683 43.6136C83.7642 44.2298 83.8345 44.5186 84.0751 44.8779C84.2805 45.1827 84.6886 45.4915 85.2616 45.771C85.7426 46.0065 86.744 46.3539 87.4873 46.5429C88.2305 46.7332 89.0143 46.9608 89.2278 47.0473C89.4427 47.1351 89.6697 47.3121 89.7346 47.4399C89.7995 47.5677 89.8211 47.7926 89.7846 47.939C89.7481 48.0854 89.5197 48.3036 89.2778 48.4234C88.9116 48.6071 88.5765 48.6284 87.2508 48.5565C86.3778 48.5099 85.5872 48.4381 85.494 48.3981C85.415 48.3981 85.1562 48.683 84.8521 49.3298C84.5913 49.8821 84.4102 50.3639 84.4467 50.3985C84.4832 50.4344 85.0305 50.5236 85.6629 50.5968C86.2954 50.6713 87.3129 50.7325 87.9265 50.7325C88.6832 50.7339 89.3022 50.6487 89.8522 50.4677C90.2981 50.3213 90.8481 50.0671 91.0752 49.902C91.3022 49.737 91.636 49.3777 91.8184 49.1035C92.0009 48.8294 92.2171 48.3502 92.2995 48.0388C92.409 47.6236 92.409 47.2948 92.2982 46.8077C92.1968 46.3606 92.0036 46.0025 91.709 45.7164C91.4684 45.4822 90.9981 45.1721 90.663 45.0257C90.3279 44.8806 89.3711 44.5785 88.5346 44.3536C87.6981 44.13 86.8462 43.9902 86.6232 43.8798C86.3702 43.7935 86.1994 43.5178 86.1994 43.3141C86.1967 43.1864 86.3251 42.9615 86.4832 42.8151C86.6954 42.6208 86.9589 42.5489 87.467 42.5489C87.8494 42.5489 88.6792 42.5968 89.3116 42.654L90.4603 42.7592C90.9846 41.3178 91.1049 40.8706 91.0684 40.8374C91.0319 40.8028 90.5292 40.7096 89.9535 40.6311Z" fill="#F1F5F2"/>
<path fill-rule="evenodd" clip-rule="evenodd" d="M108.905 45.7164C108.905 48.6002 106.526 50.9379 103.591 50.9379C100.657 50.9379 98.2776 48.6002 98.2776 45.7164C98.2776 42.8326 100.657 40.4949 103.591 40.4949C106.526 40.4949 108.905 42.8326 108.905 45.7164ZM103.591 48.5645C105.168 48.5645 106.446 47.2894 106.446 45.7164C106.446 44.1434 105.168 42.8683 103.591 42.8683C102.014 42.8683 100.736 44.1434 100.736 45.7164C100.736 47.2894 102.014 48.5645 103.591 48.5645Z" fill="#F1F5F2"/>
<path fill-rule="evenodd" clip-rule="evenodd" d="M122.015 40.4421C122.274 40.4727 122.823 40.5885 123.231 40.7016C123.639 40.8134 124.301 41.1248 124.703 41.3937C125.103 41.6638 125.638 42.1829 125.892 42.5489C126.146 42.9149 126.476 43.5431 126.624 43.9463C126.774 44.3496 126.903 45.0376 126.911 45.4768C126.919 45.916 126.885 46.3499 126.835 46.4417C126.77 46.5615 126.192 46.6134 124.751 46.6254C123.655 46.6347 121.853 46.68 118.735 46.8077C119.747 48.2204 120.727 48.5774 121.519 48.6108C122.249 48.6054 123.032 48.4857 123.909 47.6063L124.888 47.9909C125.426 48.2012 125.927 48.4261 126.001 48.49C126.087 48.5632 125.912 48.8307 125.528 49.214C125.193 49.5494 124.647 49.9806 124.312 50.1722C123.977 50.3652 123.431 50.6021 123.096 50.6993C122.761 50.7977 122.062 50.8776 121.542 50.8763C121.011 50.8763 120.3 50.7778 119.92 50.6513C119.549 50.5276 119.031 50.2947 118.772 50.1336C118.512 49.9713 118.028 49.5467 117.697 49.1887C117.366 48.8307 116.944 48.2092 116.759 47.8059C116.52 47.2855 116.407 46.7665 116.366 46.0092C116.326 45.2639 116.376 44.7249 116.531 44.2125C116.654 43.8092 116.897 43.2409 117.072 42.9482C117.246 42.6554 117.685 42.1496 118.046 41.8236C118.408 41.4975 119.039 41.0836 119.447 40.9039C119.855 40.7229 120.495 40.5339 120.866 40.482C121.238 40.4301 121.755 40.4115 122.015 40.4421ZM121.519 42.614C120.235 42.614 119.139 43.415 118.705 44.5434L124.322 44.5127C123.88 43.4005 122.791 42.614 121.519 42.614Z" fill="#F1F5F2"/>
<path d="M50.3864 1H44.1138V34.3474H50.3864V1Z" fill="#F1F5F2"/>
<path d="M83.3175 3.49326C79.6731 1.80096 78.4719 1.31166 78.2994 1.31166C78.0955 1.31166 77.9858 7.07732 77.9858 17.9853V34.659L83.1607 34.5032C83.4586 19.6496 83.5339 18.8206 84.1015 17.8544C84.3968 17.2833 85.1323 16.3502 85.9888 15.8734C87.2637 15.2878 88.0354 15.1906 89.637 15.2405C91.2459 15.3215 92.101 15.5198 93.1265 16.1899C93.8479 16.6605 94.5423 17.6612 94.8434 18.2191C95.3169 19.0917 95.4016 20.2916 95.4706 26.9455L95.549 34.659L100.724 34.5032C100.724 19.1416 100.661 18.1349 100.119 16.7387C99.7862 15.8817 98.8516 14.4792 98.0424 13.6221C97.1203 12.6466 95.825 11.7179 94.5705 11.1382C93.018 10.4183 92.0081 10.1846 90.0605 10.0879C88.301 10.0007 87.0371 10.1222 85.8265 10.4869C84.8762 10.7736 83.9259 11.0728 83.7095 11.1476C83.4084 11.2535 83.3175 10.3715 83.3175 7.38898V3.49326Z" fill="#F1F5F2"/>
<path fill-rule="evenodd" clip-rule="evenodd" d="M57.5353 32.1709C57.4475 32.1709 57.2517 34.2663 57.1294 40.4216L54.7082 41.6713C53.3752 42.357 52.2085 42.8494 52.1113 42.7621C52.0141 42.6749 52.0384 28.0437 52.0446 22.0443C52.0446 15.3155 57.5838 9.86076 64.4168 9.86076C71.2498 9.86076 76.789 15.3155 76.789 22.0443C76.789 28.7731 71.2498 34.2278 64.4168 34.2278C61.87 34.2278 59.5028 33.47 57.5353 32.1709ZM64.4168 29.1646C68.2713 29.1646 71.396 26.0476 71.396 22.2025C71.396 18.3575 68.2713 15.2405 64.4168 15.2405C60.5623 15.2405 57.4376 18.3575 57.4376 22.2025C57.4376 26.0476 60.5623 29.1646 64.4168 29.1646Z" fill="#F1F5F2"/>
<path fill-rule="evenodd" clip-rule="evenodd" d="M57.5353 32.1709C57.4475 32.1709 57.2517 34.2663 57.1294 40.4216L54.7082 41.6713C53.3752 42.357 52.2085 42.8494 52.1113 42.7621C52.0141 42.6749 52.0384 28.0437 52.0446 22.0443C52.0446 15.3155 57.5838 9.86076 64.4168 9.86076C71.2498 9.86076 76.789 15.3155 76.789 22.0443C76.789 28.7731 71.2498 34.2278 64.4168 34.2278C61.87 34.2278 59.5028 33.47 57.5353 32.1709ZM64.4168 29.1646C68.2713 29.1646 71.396 26.0476 71.396 22.2025C71.396 18.3575 68.2713 15.2405 64.4168 15.2405C60.5623 15.2405 57.4376 18.3575 57.4376 22.2025C57.4376 26.0476 60.5623 29.1646 64.4168 29.1646Z" fill="#F1F5F2"/>
<path fill-rule="evenodd" clip-rule="evenodd" d="M57.602 32.1709C57.5142 32.1709 57.3184 34.2663 57.1961 40.4216L54.7749 41.6713C53.4419 42.357 52.2752 42.8494 52.178 42.7621C52.0808 42.6749 52.1051 28.0437 52.1113 22.0443C52.1113 15.3155 57.6505 9.86076 64.4835 9.86076C71.3164 9.86076 76.8556 15.3155 76.8556 22.0443C76.8556 28.7731 71.3164 34.2278 64.4835 34.2278C61.9366 34.2278 59.5695 33.47 57.602 32.1709ZM64.4835 29.1646C68.338 29.1646 71.4626 26.0476 71.4626 22.2025C71.4626 18.3575 68.338 15.2405 64.4835 15.2405C60.629 15.2405 57.5043 18.3575 57.5043 22.2025C57.5043 26.0476 60.629 29.1646 64.4835 29.1646Z" fill="#F1F5F2"/>
<path fill-rule="evenodd" clip-rule="evenodd" d="M57.602 32.1709C57.5142 32.1709 57.3184 34.2663 57.1961 40.4216L54.7749 41.6713C53.4419 42.357 52.2752 42.8494 52.178 42.7621C52.0808 42.6749 52.1051 28.0437 52.1113 22.0443C52.1113 15.3155 57.6505 9.86076 64.4835 9.86076C71.3164 9.86076 76.8556 15.3155 76.8556 22.0443C76.8556 28.7731 71.3164 34.2278 64.4835 34.2278C61.9366 34.2278 59.5695 33.47 57.602 32.1709ZM64.4835 29.1646C68.338 29.1646 71.4626 26.0476 71.4626 22.2025C71.4626 18.3575 68.338 15.2405 64.4835 15.2405C60.629 15.2405 57.5043 18.3575 57.5043 22.2025C57.5043 26.0476 60.629 29.1646 64.4835 29.1646Z" fill="#F1F5F2"/>
<path fill-rule="evenodd" clip-rule="evenodd" d="M114.381 34.3615C107.548 34.3615 102.009 28.9068 102.009 22.178C102.009 15.4492 107.548 9.99444 114.381 9.99444C121.214 9.99444 126.753 15.4492 126.753 22.178C126.757 24.8364 126.824 32.3203 126.457 34.639L123.948 34.5455C121.464 34.452 121.439 34.4426 121.36 33.5949C121.317 33.1243 121.094 32.6343 120.965 32.6841C118.661 34.0867 117.211 34.4621 114.381 34.3615ZM114.381 29.14C118.236 29.14 121.36 26.023 121.36 22.178C121.36 18.333 118.236 15.216 114.381 15.216C110.527 15.216 107.402 18.333 107.402 22.178C107.402 26.023 110.527 29.14 114.381 29.14Z" fill="#F1F5F2"/>
<path d= "M7.93288 27.0635L6.72486 29.5953L6.68628 29.6793C6.5781 29.916 6.49971 30.1651 6.45283 30.4212C6.4328 30.5309 6.42279 30.6422 6.42279 30.7538V30.779C6.42279 30.9382 6.48238 31.0915 6.58982 31.2092L6.64623 31.2708C6.69751 31.3269 6.76369 31.3672 6.83694 31.3872C7.02839 31.4397 7.22887 31.451 7.42496 31.4202L7.83203 31.3567L8.33556 31.2466L27.8303 26.4853C27.9072 26.4665 27.9023 26.3556 27.8244 26.342L14.5771 23.9812L13.0671 23.8711H11.6576L11.123 23.9296C10.809 23.9639 10.4991 24.0286 10.1975 24.1228L10.1428 24.1399C10.0132 24.1804 9.89327 24.2476 9.7912 24.3371L9.65005 24.4605C9.51208 24.581 9.38608 24.7142 9.27302 24.8583L9.10941 25.0669C8.92944 25.2968 8.76827 25.541 8.62786 25.7969L7.93288 27.0635Z" fill="#F7F7F7"/>
<path d="M18.2171 5.76227L10.8073 21.1331C10.8815 21.2693 10.9626 21.2678 11.1889 21.1331L12.5635 20.0184L15.3822 17.4865L18.4024 14.9547L20.6173 12.9732L21.0422 12.6117C21.3598 12.3417 21.6204 12.0112 21.8094 11.6396C21.9523 11.3584 22.0267 11.0475 22.0267 10.7321V10.6551C22.0267 10.3692 21.965 10.0865 21.846 9.82645L21.7247 9.56065L21.1205 8.45985L19.4073 5.699C19.2832 5.49912 19.0647 5.37756 18.8295 5.37756C18.5685 5.37756 18.3304 5.52706 18.2171 5.76227Z" fill="#F7F7FF"/>
<path d="M27.0603 17.5966L24.024 12.9277C23.9329 12.7877 23.7314 12.7783 23.6279 12.9091L22.53 14.2942L21.624 15.5051L20.416 17.0462L19.3345 18.3977C19.1203 18.6652 18.9882 18.9889 18.9535 19.3297C18.9225 19.6354 18.9816 19.9434 19.124 20.2157L19.2292 20.4171C19.282 20.5181 19.344 20.6139 19.4141 20.7035L19.6216 20.9684C19.8141 21.2139 20.0478 21.424 20.3125 21.5892L20.4832 21.696C20.5723 21.7517 20.6665 21.7991 20.7645 21.8375L24.5434 23.3209L28.671 25.1923L29.7784 25.6326L30.3232 25.8311C30.5591 25.9171 30.8145 25.9344 31.0599 25.8807C31.1415 25.8629 31.2123 25.8123 31.2558 25.741L31.2838 25.6951C31.3527 25.5823 31.3891 25.4526 31.3891 25.3203V25.2193C31.3891 25.1281 31.3808 25.037 31.3644 24.9473L31.3612 24.9305C31.3131 24.6669 31.2169 24.4145 31.0775 24.1857L27.0603 17.5966Z" fill="#F7F7FF"/>
</svg>
