<svg width="124" height="29" viewBox="0 0 124 29" fill="none" xmlns="http://www.w3.org/2000/svg">
<path d="M112.35 12.7C112.764 12.7 113.1 13.0358 113.1 13.45V15.45H115.1C115.514 15.45 115.85 15.7858 115.85 16.2C115.85 16.6142 115.514 16.95 115.1 16.95H113.1V18.95C113.1 19.3642 112.764 19.7 112.35 19.7C111.936 19.7 111.6 19.3642 111.6 18.95V16.95H109.6C109.186 16.95 108.85 16.6142 108.85 16.2C108.85 15.7858 109.186 15.45 109.6 15.45H111.6V13.45C111.6 13.0358 111.936 12.7 112.35 12.7Z" fill="black"/>
<path fill-rule="evenodd" clip-rule="evenodd" d="M104.592 19.3042C102.344 13.7867 106.403 7.75 112.361 7.75H112.682C117.138 7.75 120.75 11.362 120.75 15.8176C120.75 20.7785 116.728 24.8 111.768 24.8H103.947C103.629 24.8 103.346 24.5991 103.24 24.2989C103.134 23.9987 103.23 23.6645 103.478 23.4652L105.449 21.8819C105.535 21.8127 105.566 21.6951 105.524 21.5927L104.592 19.3042ZM112.361 9.25C107.468 9.25 104.135 14.2074 105.981 18.7383L106.913 21.0268C107.205 21.7435 106.992 22.5669 106.388 23.0515L106.079 23.3H111.768C115.9 23.3 119.25 19.95 119.25 15.8176C119.25 12.1904 116.31 9.25 112.682 9.25H112.361Z" fill="black"/>
<path d="M61.077 6.449C62.823 6.449 64.11 6.8 64.938 7.502C65.766 8.204 66.18 9.257 66.18 10.661V11.255C66.18 12.101 66.036 12.884 65.748 13.604C65.46 14.324 64.857 15.224 63.939 16.304L60.024 21.029H66.369V23H57.27V21.245L62.67 14.414C63.174 13.784 63.498 13.271 63.642 12.875C63.804 12.461 63.885 11.93 63.885 11.282V10.796C63.885 9.932 63.66 9.32 63.21 8.96C62.778 8.582 62.067 8.393 61.077 8.393C60.591 8.393 60.033 8.456 59.403 8.582C58.773 8.69 58.197 8.825 57.675 8.987V7.016C59.061 6.638 60.195 6.449 61.077 6.449Z" fill="#2B364A"/>
<path d="M64.938 7.502L64.8087 7.65455L64.938 7.502ZM65.748 13.604L65.5623 13.5297L65.748 13.604ZM63.939 16.304L63.7866 16.1745L63.785 16.1764L63.939 16.304ZM60.024 21.029L59.87 20.9014L59.5986 21.229H60.024V21.029ZM66.369 21.029H66.569V20.829H66.369V21.029ZM66.369 23V23.2H66.569V23H66.369ZM57.27 23H57.07V23.2H57.27V23ZM57.27 21.245L57.1131 21.121L57.07 21.1755V21.245H57.27ZM62.67 14.414L62.5138 14.2891L62.5131 14.29L62.67 14.414ZM63.642 12.875L63.4557 12.8021L63.454 12.8067L63.642 12.875ZM63.21 8.96L63.0782 9.11066L63.0851 9.11617L63.21 8.96ZM59.403 8.582L59.4368 8.7792L59.4422 8.77812L59.403 8.582ZM57.675 8.987H57.475V9.25848L57.7343 9.17801L57.675 8.987ZM57.675 7.016L57.6224 6.82305L57.475 6.86324V7.016H57.675ZM61.077 6.649C62.8027 6.649 64.0331 6.99702 64.8087 7.65455L65.0673 7.34945C64.1869 6.60298 62.8433 6.249 61.077 6.249V6.649ZM64.8087 7.65455C65.5794 8.30803 65.98 9.29727 65.98 10.661H66.38C66.38 9.21673 65.9526 8.09997 65.0673 7.34945L64.8087 7.65455ZM65.98 10.661V11.255H66.38V10.661H65.98ZM65.98 11.255C65.98 12.0779 65.84 12.8354 65.5623 13.5297L65.9337 13.6783C66.232 12.9326 66.38 12.1241 66.38 11.255H65.98ZM65.5623 13.5297C65.2864 14.2194 64.7002 15.0997 63.7866 16.1745L64.0914 16.4335C65.0138 15.3483 65.6336 14.4286 65.9337 13.6783L65.5623 13.5297ZM63.785 16.1764L59.87 20.9014L60.178 21.1566L64.093 16.4316L63.785 16.1764ZM60.024 21.229H66.369V20.829H60.024V21.229ZM66.169 21.029V23H66.569V21.029H66.169ZM66.369 22.8H57.27V23.2H66.369V22.8ZM57.47 23V21.245H57.07V23H57.47ZM57.4269 21.369L62.8269 14.538L62.5131 14.29L57.1131 21.121L57.4269 21.369ZM62.8262 14.5389C63.3337 13.9045 63.6745 13.3709 63.83 12.9433L63.454 12.8067C63.3215 13.1711 63.0143 13.6635 62.5138 14.2891L62.8262 14.5389ZM63.8282 12.9479C64.0025 12.5026 64.085 11.9445 64.085 11.282H63.685C63.685 11.9155 63.6055 12.4194 63.4558 12.8021L63.8282 12.9479ZM64.085 11.282V10.796H63.685V11.282H64.085ZM64.085 10.796C64.085 9.90234 63.8523 9.21768 63.3349 8.80383L63.0851 9.11617C63.4677 9.42231 63.685 9.96166 63.685 10.796H64.085ZM63.3417 8.80948C62.8548 8.3834 62.0834 8.193 61.077 8.193V8.593C62.0506 8.593 62.7012 8.78059 63.0783 9.11051L63.3417 8.80948ZM61.077 8.193C60.5744 8.193 60.0028 8.25807 59.3638 8.38588L59.4422 8.77812C60.0632 8.65393 60.6076 8.593 61.077 8.593V8.193ZM59.3692 8.38487C58.732 8.49411 58.1473 8.631 57.6157 8.79599L57.7343 9.17801C58.2467 9.019 58.814 8.88589 59.4368 8.77912L59.3692 8.38487ZM57.875 8.987V7.016H57.475V8.987H57.875ZM57.7276 7.20895C59.1058 6.83309 60.2204 6.649 61.077 6.649V6.249C60.1696 6.249 59.0162 6.44291 57.6224 6.82305L57.7276 7.20895Z" fill="#2B364A"/>
<path d="M15.1 14.45C15.5142 14.45 15.85 14.7858 15.85 15.2C15.85 15.6142 15.5142 15.95 15.1 15.95H9.60001C9.1858 15.95 8.85001 15.6142 8.85001 15.2C8.85001 14.7858 9.1858 14.45 9.60001 14.45H15.1Z" fill="black"/>
<path fill-rule="evenodd" clip-rule="evenodd" d="M4.59188 18.3042C2.34402 12.7867 6.40312 6.75 12.3609 6.75H12.6824C17.138 6.75 20.75 10.362 20.75 14.8176C20.75 19.7785 16.7285 23.8 11.7676 23.8H3.94737C3.62911 23.8 3.34551 23.5991 3.23988 23.2989C3.13425 22.9987 3.2296 22.6645 3.47775 22.4652L5.44924 20.8819C5.53544 20.8127 5.56593 20.6951 5.52422 20.5927L4.59188 18.3042ZM12.3609 8.25C7.4684 8.25 4.13508 13.2074 5.98102 17.7383L6.91336 20.0268C7.20536 20.7435 6.9919 21.5669 6.38848 22.0515L6.07904 22.3H11.7676C15.9 22.3 19.25 18.95 19.25 14.8176C19.25 11.1904 16.3096 8.25 12.6824 8.25H12.3609Z" fill="black"/>
</svg>
