<svg width="156" height="34" viewBox="0 0 156 34" fill="none" xmlns="http://www.w3.org/2000/svg">
<path d="M142 9.25C141.586 9.25 141.25 9.58579 141.25 10V10.75H137C136.586 10.75 136.25 11.0858 136.25 11.5C136.25 11.9142 136.586 12.25 137 12.25H151C151.414 12.25 151.75 11.9142 151.75 11.5C151.75 11.0858 151.414 10.75 151 10.75H146.75V10C146.75 9.58579 146.414 9.25 146 9.25H142Z" fill="black"/>
<path d="M142 17.65C142.414 17.65 142.75 17.9858 142.75 18.4L142.75 25.4C142.75 25.8142 142.414 26.15 142 26.15C141.586 26.15 141.25 25.8142 141.25 25.4L141.25 18.4C141.25 17.9858 141.586 17.65 142 17.65Z" fill="black"/>
<path d="M146.75 18.4C146.75 17.9858 146.414 17.65 146 17.65C145.586 17.65 145.25 17.9858 145.25 18.4V25.4C145.25 25.8142 145.586 26.15 146 26.15C146.414 26.15 146.75 25.8142 146.75 25.4V18.4Z" fill="black"/>
<path fill-rule="evenodd" clip-rule="evenodd" d="M137.991 14.9172C138.034 14.5374 138.355 14.25 138.737 14.25H149.263C149.645 14.25 149.966 14.5374 150.009 14.9172L150.209 16.7185C150.572 19.9838 150.572 23.2793 150.209 26.5446L150.189 26.722C150.045 28.0181 149.04 29.0517 147.749 29.2325C145.262 29.5807 142.738 29.5807 140.251 29.2325C138.96 29.0517 137.955 28.0181 137.811 26.722L137.791 26.5446C137.428 23.2793 137.428 19.9838 137.791 16.7185L137.991 14.9172ZM139.408 15.75L139.282 16.8842C138.932 20.0394 138.932 23.2238 139.282 26.379L139.302 26.5563C139.37 27.171 139.847 27.6612 140.459 27.747C142.808 28.0758 145.192 28.0758 147.541 27.747C148.153 27.6612 148.63 27.171 148.698 26.5563L148.718 26.379C149.068 23.2238 149.068 20.0394 148.718 16.8842L148.592 15.75H139.408Z" fill="black"/>
<path d="M55.179 11.609C52.965 11.645 51.363 12.014 50.373 12.716C49.401 13.4 48.915 14.426 48.915 15.794V17.306C50.193 16.1 51.399 15.497 52.533 15.497C53.829 15.497 54.828 15.902 55.53 16.712C56.25 17.504 56.61 18.692 56.61 20.276V21.329C56.61 22.967 56.178 24.209 55.314 25.055C54.468 25.901 53.226 26.324 51.588 26.324C49.986 26.324 48.753 25.883 47.889 25.001C47.043 24.101 46.62 22.832 46.62 21.194V16.226C46.62 14.102 47.331 12.482 48.753 11.366C50.193 10.25 52.335 9.674 55.179 9.638V11.609ZM52.128 17.495C51.264 17.495 50.193 18.08 48.915 19.25V21.329C48.915 23.363 49.806 24.38 51.588 24.38C53.406 24.38 54.315 23.408 54.315 21.464V20.195C54.315 19.313 54.117 18.647 53.721 18.197C53.343 17.729 52.812 17.495 52.128 17.495ZM64.5645 9.449C66.1845 9.449 67.4175 9.917 68.2635 10.853C69.1275 11.771 69.5595 13.148 69.5595 14.984V20.789C69.5595 22.625 69.1275 24.011 68.2635 24.947C67.4175 25.865 66.1845 26.324 64.5645 26.324C62.9445 26.324 61.7025 25.865 60.8385 24.947C59.9925 24.011 59.5695 22.625 59.5695 20.789V14.984C59.5695 13.148 59.9925 11.771 60.8385 10.853C61.7025 9.917 62.9445 9.449 64.5645 9.449ZM64.5645 11.393C62.7645 11.393 61.8645 12.518 61.8645 14.768V21.005C61.8645 23.255 62.7645 24.38 64.5645 24.38C66.3645 24.38 67.2645 23.255 67.2645 21.005V14.768C67.2645 12.518 66.3645 11.393 64.5645 11.393Z" fill="#2B364A"/>
<path d="M55.179 11.609L55.1823 11.809L55.379 11.8058V11.609H55.179ZM50.373 12.716L50.4881 12.8796L50.4887 12.8791L50.373 12.716ZM48.915 17.306H48.715V17.7697L49.0523 17.4515L48.915 17.306ZM55.53 16.712L55.3788 16.843L55.382 16.8465L55.53 16.712ZM55.314 25.055L55.1741 24.9121L55.1726 24.9136L55.314 25.055ZM47.889 25.001L47.7432 25.138L47.7461 25.141L47.889 25.001ZM48.753 11.366L48.6305 11.2079L48.6295 11.2087L48.753 11.366ZM55.179 9.638H55.379V9.43545L55.1765 9.43802L55.179 9.638ZM48.915 19.25L48.7799 19.1025L48.715 19.1619V19.25H48.915ZM53.721 18.197L53.5653 18.3228L53.5709 18.3291L53.721 18.197ZM55.1757 11.409C52.9502 11.4452 51.2977 11.8151 50.2573 12.5529L50.4887 12.8791C51.4283 12.2129 52.9798 11.8448 55.1823 11.809L55.1757 11.409ZM50.2579 12.5524C49.224 13.28 48.715 14.3722 48.715 15.794H49.115C49.115 14.4798 49.578 13.52 50.4881 12.8796L50.2579 12.5524ZM48.715 15.794V17.306H49.115V15.794H48.715ZM49.0523 17.4515C50.3129 16.2619 51.4719 15.697 52.533 15.697V15.297C51.3261 15.297 50.0731 15.9381 48.7777 17.1605L49.0523 17.4515ZM52.533 15.697C53.7843 15.697 54.7227 16.0859 55.3789 16.843L55.6811 16.581C54.9333 15.7181 53.8737 15.297 52.533 15.297V15.697ZM55.382 16.8465C56.0556 17.5875 56.41 18.7184 56.41 20.276H56.81C56.81 18.6656 56.4444 17.4205 55.678 16.5775L55.382 16.8465ZM56.41 20.276V21.329H56.81V20.276H56.41ZM56.41 21.329C56.41 22.9329 55.9876 24.1155 55.1741 24.9121L55.4539 25.1979C56.3684 24.3025 56.81 23.0011 56.81 21.329H56.41ZM55.1726 24.9136C54.3762 25.71 53.193 26.124 51.588 26.124V26.524C53.259 26.524 54.5598 26.092 55.4554 25.1964L55.1726 24.9136ZM51.588 26.124C50.023 26.124 48.848 25.6941 48.0319 24.861L47.7461 25.141C48.658 26.0719 49.949 26.524 51.588 26.524V26.124ZM48.0347 24.864C47.2337 24.0119 46.82 22.7981 46.82 21.194H46.42C46.42 22.8659 46.8523 24.1901 47.7433 25.138L48.0347 24.864ZM46.82 21.194V16.226H46.42V21.194H46.82ZM46.82 16.226C46.82 14.1513 47.5115 12.5945 48.8765 11.5233L48.6295 11.2087C47.1505 12.3695 46.42 14.0527 46.42 16.226H46.82ZM48.8755 11.5241C50.2666 10.446 52.3582 9.87372 55.1815 9.83798L55.1765 9.43802C52.3118 9.47428 50.1194 10.054 48.6305 11.2079L48.8755 11.5241ZM54.979 9.638V11.609H55.379V9.638H54.979ZM52.128 17.295C51.1833 17.295 50.0631 17.9278 48.7799 19.1025L49.0501 19.3975C50.3229 18.2322 51.3447 17.695 52.128 17.695V17.295ZM48.715 19.25V21.329H49.115V19.25H48.715ZM48.715 21.329C48.715 22.3708 48.9426 23.1895 49.4328 23.749C49.9274 24.3136 50.6588 24.58 51.588 24.58V24.18C50.7352 24.18 50.1301 23.9379 49.7337 23.4855C49.3329 23.028 49.115 22.3212 49.115 21.329H48.715ZM51.588 24.58C52.5314 24.58 53.2747 24.3272 53.7793 23.7876C54.2816 23.2506 54.515 22.4636 54.515 21.464H54.115C54.115 22.4084 53.8939 23.0794 53.4872 23.5144C53.0828 23.9468 52.4626 24.18 51.588 24.18V24.58ZM54.515 21.464V20.195H54.115V21.464H54.515ZM54.515 20.195C54.515 19.2868 54.3115 18.5653 53.8711 18.0649L53.5709 18.3291C53.9225 18.7287 54.115 19.3392 54.115 20.195H54.515ZM53.8766 18.0713C53.4551 17.5495 52.8631 17.295 52.128 17.295V17.695C52.7609 17.695 53.2309 17.9085 53.5654 18.3227L53.8766 18.0713ZM68.2635 10.853L68.115 10.9871L68.1178 10.9901L68.2635 10.853ZM68.2635 24.947L68.1165 24.8113L68.1164 24.8115L68.2635 24.947ZM60.8385 24.947L60.69 25.0811L60.6928 25.0841L60.8385 24.947ZM60.8385 10.853L60.6915 10.7173L60.6914 10.7175L60.8385 10.853ZM64.5645 9.649C66.145 9.649 67.3171 10.1043 68.1151 10.9871L68.4118 10.7189C67.5178 9.72974 66.2239 9.249 64.5645 9.249V9.649ZM68.1178 10.9901C68.9338 11.857 69.3595 13.1759 69.3595 14.984H69.7595C69.7595 13.1201 69.3211 11.685 68.4091 10.7159L68.1178 10.9901ZM69.3595 14.984V20.789H69.7595V14.984H69.3595ZM69.3595 20.789C69.3595 22.5967 68.9339 23.9258 68.1165 24.8113L68.4104 25.0827C69.321 24.0962 69.7595 22.6533 69.7595 20.789H69.3595ZM68.1164 24.8115C67.3187 25.677 66.1462 26.124 64.5645 26.124V26.524C66.2228 26.524 67.5162 26.053 68.4105 25.0825L68.1164 24.8115ZM64.5645 26.124C62.983 26.124 61.8003 25.6771 60.9841 24.8099L60.6928 25.0841C61.6047 26.0529 62.9059 26.524 64.5645 26.524V26.124ZM60.9868 24.8129C60.1864 23.9273 59.7695 22.5977 59.7695 20.789H59.3695C59.3695 22.6523 59.7985 24.0947 60.6901 25.0811L60.9868 24.8129ZM59.7695 20.789V14.984H59.3695V20.789H59.7695ZM59.7695 14.984C59.7695 13.175 60.1866 11.8555 60.9855 10.9885L60.6914 10.7175C59.7983 11.6865 59.3695 13.121 59.3695 14.984H59.7695ZM60.9854 10.9887C61.8018 10.1042 62.9841 9.649 64.5645 9.649V9.249C62.9048 9.249 61.6031 9.72981 60.6915 10.7173L60.9854 10.9887ZM64.5645 11.193C63.6203 11.193 62.8805 11.4903 62.3833 12.1118C61.8929 12.7248 61.6645 13.6216 61.6645 14.768H62.0645C62.0645 13.6644 62.2861 12.8737 62.6956 12.3617C63.0984 11.8582 63.7086 11.593 64.5645 11.593V11.193ZM61.6645 14.768V21.005H62.0645V14.768H61.6645ZM61.6645 21.005C61.6645 22.1514 61.8929 23.0482 62.3833 23.6612C62.8805 24.2827 63.6203 24.58 64.5645 24.58V24.18C63.7086 24.18 63.0984 23.9148 62.6956 23.4113C62.2861 22.8993 62.0645 22.1086 62.0645 21.005H61.6645ZM64.5645 24.58C65.5086 24.58 66.2484 24.2827 66.7456 23.6612C67.2361 23.0482 67.4645 22.1514 67.4645 21.005H67.0645C67.0645 22.1086 66.8429 22.8993 66.4333 23.4113C66.0305 23.9148 65.4203 24.18 64.5645 24.18V24.58ZM67.4645 21.005V14.768H67.0645V21.005H67.4645ZM67.4645 14.768C67.4645 13.6216 67.2361 12.7248 66.7456 12.1118C66.2484 11.4903 65.5086 11.193 64.5645 11.193V11.593C65.4203 11.593 66.0305 11.8582 66.4333 12.3617C66.8429 12.8737 67.0645 13.6644 67.0645 14.768H67.4645Z" fill="#2B364A"/>
<path d="M32.0037 16.5019C32.0037 25.0633 25.0633 32.0037 16.5019 32.0037C7.94042 32.0037 1 25.0633 1 16.5019C1 7.94042 7.94042 1 16.5019 1C25.0633 1 32.0037 7.94042 32.0037 16.5019Z" fill="#66C1A7" stroke="#6AA292" stroke-width="2"/>
<path d="M15.0574 7.80997C14.4262 9.00626 13.1848 11.3925 12.298 13.1127C12.2012 13.301 12.103 13.4911 12.0052 13.6805L12.0047 13.6815C11.2093 15.2216 10.4382 16.7148 10.5986 16.8298C10.7445 16.9345 12.0848 15.8066 13.6312 14.505L13.6316 14.5047C13.9949 14.199 14.3695 13.8836 14.7428 13.5725C16.8034 11.9562 18.4657 10.5577 18.5523 10.3668C18.6817 10.1975 18.8612 9.95063 18.8612 9.51368C18.8612 8.92826 18.4734 7.93724 17.8126 6.96154C17.3059 6.21279 16.8534 5.68756 16.5703 5.68756C16.2872 5.68756 15.8175 6.36763 15.0574 7.80997Z" fill="white"/>
<path d="M17.0595 16.6318C17.3798 16.9507 18.8637 17.5316 21.3064 18.4585C21.5288 18.5432 21.7485 18.627 21.9639 18.7091L21.964 18.7091C23.7174 19.3775 25.18 19.935 25.4131 19.9765C25.7741 20.0402 25.8882 19.9574 25.8882 19.635C25.8882 19.4017 24.5882 17.3932 23.1082 15.1236C22.6528 14.4258 22.2388 13.7633 21.8743 13.1801C21.0544 11.8682 20.4854 10.9576 20.2596 10.9492C19.9911 10.9391 19.4693 11.5896 18.7597 12.4742C18.6073 12.6642 18.4462 12.865 18.2771 13.0724C18.1454 13.2342 18.0196 13.3869 17.9003 13.5315C17.1365 14.4583 16.6441 15.0557 16.6218 15.6148C16.5978 16.2165 16.9651 16.5466 17.0464 16.6197C17.0524 16.6251 17.0569 16.6292 17.0595 16.6318Z" fill="white"/>
<path d="M9.91443 18.7717C9.66319 18.8651 9.32117 19.1217 9.15649 19.3423C8.9897 19.5608 8.45978 20.4813 7.9763 21.3849C7.49283 22.2885 7.09802 23.1709 7.09802 23.3469C7.09802 23.523 7.16252 23.6934 7.36193 23.7775C7.56134 23.8616 9.66741 23.4615 12.165 22.9376C14.6626 22.4137 17.8443 21.7349 19.2377 21.4295C20.6311 21.124 22.3869 20.6739 22.6192 20.5784C22.6707 20.5573 22.9281 20.4233 22.6192 20.3457C22.5435 20.3201 21.9629 20.2379 21.089 20.1141C19.9392 19.9513 18.2817 19.7165 16.5986 19.4441C13.6387 18.9648 11.0249 18.5787 10.7927 18.5872C10.5605 18.5957 10.1657 18.6784 9.91443 18.7717Z" fill="white"/>
</svg>
