<svg width="156" height="35" viewBox="0 0 156 35" fill="none" xmlns="http://www.w3.org/2000/svg">
<path d="M142 6.25C141.586 6.25 141.25 6.58579 141.25 7V7.75H137C136.586 7.75 136.25 8.08579 136.25 8.5C136.25 8.91421 136.586 9.25 137 9.25H151C151.414 9.25 151.75 8.91421 151.75 8.5C151.75 8.08579 151.414 7.75 151 7.75H146.75V7C146.75 6.58579 146.414 6.25 146 6.25H142Z" fill="black"/>
<path d="M142 14.65C142.414 14.65 142.75 14.9858 142.75 15.4L142.75 22.4C142.75 22.8142 142.414 23.15 142 23.15C141.586 23.15 141.25 22.8142 141.25 22.4L141.25 15.4C141.25 14.9858 141.586 14.65 142 14.65Z" fill="black"/>
<path d="M146.75 15.4C146.75 14.9858 146.414 14.65 146 14.65C145.586 14.65 145.25 14.9858 145.25 15.4V22.4C145.25 22.8142 145.586 23.15 146 23.15C146.414 23.15 146.75 22.8142 146.75 22.4V15.4Z" fill="black"/>
<path fill-rule="evenodd" clip-rule="evenodd" d="M137.991 11.9172C138.034 11.5374 138.355 11.25 138.737 11.25H149.263C149.645 11.25 149.966 11.5374 150.009 11.9172L150.209 13.7185C150.572 16.9838 150.572 20.2793 150.209 23.5446L150.189 23.722C150.045 25.0181 149.04 26.0517 147.749 26.2325C145.262 26.5807 142.738 26.5807 140.251 26.2325C138.96 26.0517 137.955 25.0181 137.811 23.722L137.791 23.5446C137.428 20.2793 137.428 16.9838 137.791 13.7185L137.991 11.9172ZM139.408 12.75L139.282 13.8842C138.932 17.0394 138.932 20.2238 139.282 23.379L139.302 23.5563C139.37 24.171 139.847 24.6612 140.459 24.747C142.808 25.0758 145.192 25.0758 147.541 24.747C148.153 24.6612 148.63 24.171 148.698 23.5563L148.718 23.379C149.068 20.2238 149.068 17.0394 148.718 13.8842L148.592 12.75H139.408Z" fill="black"/>
<path d="M49.212 6.449C50.742 6.449 51.912 6.818 52.722 7.556C53.532 8.294 53.937 9.329 53.937 10.661V10.931C53.937 11.759 53.757 12.488 53.397 13.118C53.055 13.73 52.542 14.198 51.858 14.522C52.596 14.828 53.181 15.323 53.613 16.007C54.063 16.691 54.288 17.465 54.288 18.329V18.599C54.288 20.021 53.856 21.164 52.992 22.028C52.146 22.892 50.913 23.324 49.293 23.324C48.447 23.324 47.286 23.207 45.81 22.973V21.056C47.178 21.29 48.339 21.407 49.293 21.407C50.157 21.407 50.823 21.173 51.291 20.705C51.759 20.219 51.993 19.562 51.993 18.734V18.302C51.993 16.466 51.048 15.548 49.158 15.548H46.755V13.712H49.158C50.004 13.712 50.625 13.505 51.021 13.091C51.435 12.659 51.642 11.975 51.642 11.039V10.526C51.642 9.068 50.832 8.339 49.212 8.339C48.42 8.339 47.286 8.465 45.81 8.717V6.8C47.286 6.566 48.42 6.449 49.212 6.449ZM62.2441 6.449C63.8641 6.449 65.0971 6.917 65.9431 7.853C66.8071 8.771 67.2391 10.148 67.2391 11.984V17.789C67.2391 19.625 66.8071 21.011 65.9431 21.947C65.0971 22.865 63.8641 23.324 62.2441 23.324C60.6241 23.324 59.3821 22.865 58.5181 21.947C57.6721 21.011 57.2491 19.625 57.2491 17.789V11.984C57.2491 10.148 57.6721 8.771 58.5181 7.853C59.3821 6.917 60.6241 6.449 62.2441 6.449ZM62.2441 8.393C60.4441 8.393 59.5441 9.518 59.5441 11.768V18.005C59.5441 20.255 60.4441 21.38 62.2441 21.38C64.0441 21.38 64.9441 20.255 64.9441 18.005V11.768C64.9441 9.518 64.0441 8.393 62.2441 8.393Z" fill="#2B364A"/>
<path d="M52.722 7.556L52.5873 7.70384L52.722 7.556ZM53.397 13.118L53.2233 13.0188L53.2224 13.0204L53.397 13.118ZM51.858 14.522L51.7724 14.3413L51.3651 14.5342L51.7814 14.7067L51.858 14.522ZM53.613 16.007L53.4439 16.1138L53.4459 16.1169L53.613 16.007ZM52.992 22.028L52.8506 21.8866L52.8491 21.8881L52.992 22.028ZM45.81 22.973H45.61V23.1438L45.7787 23.1705L45.81 22.973ZM45.81 21.056L45.8437 20.8589L45.61 20.8189V21.056H45.81ZM51.291 20.705L51.4324 20.8464L51.4351 20.8437L51.291 20.705ZM46.755 15.548H46.555V15.748H46.755V15.548ZM46.755 13.712V13.512H46.555V13.712H46.755ZM51.021 13.091L50.8766 12.9526L50.8765 12.9528L51.021 13.091ZM45.81 8.717H45.61V8.95404L45.8437 8.91415L45.81 8.717ZM45.81 6.8L45.7787 6.60247L45.61 6.62921V6.8H45.81ZM49.212 6.649C50.712 6.649 51.8265 7.01069 52.5873 7.70384L52.8567 7.40816C51.9975 6.62531 50.772 6.249 49.212 6.249V6.649ZM52.5873 7.70384C53.3469 8.39592 53.737 9.37215 53.737 10.661H54.137C54.137 9.28585 53.7171 8.19208 52.8567 7.40816L52.5873 7.70384ZM53.737 10.661V10.931H54.137V10.661H53.737ZM53.737 10.931C53.737 11.7292 53.5638 12.423 53.2234 13.0188L53.5706 13.2172C53.9502 12.553 54.137 11.7888 54.137 10.931H53.737ZM53.2224 13.0204C52.9023 13.5932 52.422 14.0336 51.7724 14.3413L51.9436 14.7027C52.662 14.3624 53.2077 13.8668 53.5716 13.2156L53.2224 13.0204ZM51.7814 14.7067C52.4807 14.9967 53.0337 15.4642 53.4439 16.1138L53.7821 15.9002C53.3283 15.1818 52.7113 14.6593 51.9346 14.3373L51.7814 14.7067ZM53.4459 16.1169C53.8732 16.7664 54.088 17.5018 54.088 18.329H54.488C54.488 17.4282 54.2528 16.6156 53.7801 15.8971L53.4459 16.1169ZM54.088 18.329V18.599H54.488V18.329H54.088ZM54.088 18.599C54.088 19.9773 53.6709 21.0662 52.8506 21.8866L53.1334 22.1694C54.0411 21.2618 54.488 20.0647 54.488 18.599H54.088ZM52.8491 21.8881C52.0522 22.702 50.8781 23.124 49.293 23.124V23.524C50.9479 23.524 52.2398 23.082 53.1349 22.1679L52.8491 21.8881ZM49.293 23.124C48.4625 23.124 47.3135 23.0089 45.8413 22.7755L45.7787 23.1705C47.2585 23.4051 48.4315 23.524 49.293 23.524V23.124ZM46.01 22.973V21.056H45.61V22.973H46.01ZM45.7763 21.2531C47.1509 21.4883 48.3239 21.607 49.293 21.607V21.207C48.3541 21.207 47.2051 21.0917 45.8437 20.8589L45.7763 21.2531ZM49.293 21.607C50.1932 21.607 50.9165 21.3624 51.4324 20.8464L51.1496 20.5636C50.7295 20.9836 50.1208 21.207 49.293 21.207V21.607ZM51.4351 20.8437C51.9467 20.3124 52.193 19.6013 52.193 18.734H51.793C51.793 19.5227 51.5713 20.1256 51.1469 20.5663L51.4351 20.8437ZM52.193 18.734V18.302H51.793V18.734H52.193ZM52.193 18.302C52.193 17.3517 51.9481 16.6025 51.4236 16.093C50.9002 15.5846 50.1324 15.348 49.158 15.348V15.748C50.0736 15.748 50.7233 15.9704 51.1449 16.38C51.5654 16.7885 51.793 17.4163 51.793 18.302H52.193ZM49.158 15.348H46.755V15.748H49.158V15.348ZM46.955 15.548V13.712H46.555V15.548H46.955ZM46.755 13.912H49.158V13.512H46.755V13.912ZM49.158 13.912C50.0325 13.912 50.7169 13.6982 51.1655 13.2292L50.8765 12.9528C50.5331 13.3118 49.9755 13.512 49.158 13.512V13.912ZM51.1654 13.2294C51.6307 12.7439 51.842 11.9985 51.842 11.039H51.442C51.442 11.9515 51.2393 12.5741 50.8766 12.9526L51.1654 13.2294ZM51.842 11.039V10.526H51.442V11.039H51.842ZM51.842 10.526C51.842 9.76041 51.6284 9.15116 51.1683 8.73709C50.7122 8.32663 50.0479 8.139 49.212 8.139V8.539C49.9961 8.539 50.5468 8.71587 50.9007 9.03441C51.2506 9.34934 51.442 9.83359 51.442 10.526H51.842ZM49.212 8.139C48.4028 8.139 47.2555 8.26731 45.7763 8.51985L45.8437 8.91415C47.3165 8.66269 48.4372 8.539 49.212 8.539V8.139ZM46.01 8.717V6.8H45.61V8.717H46.01ZM45.8413 6.99753C47.3143 6.76401 48.436 6.649 49.212 6.649V6.249C48.404 6.249 47.2577 6.36799 45.7787 6.60247L45.8413 6.99753ZM65.9431 7.853L65.7947 7.98713L65.7975 7.99007L65.9431 7.853ZM65.9431 21.947L65.7962 21.8113L65.7961 21.8115L65.9431 21.947ZM58.5181 21.947L58.3697 22.0811L58.3725 22.0841L58.5181 21.947ZM58.5181 7.853L58.3712 7.71734L58.3711 7.71746L58.5181 7.853ZM62.2441 6.649C63.8247 6.649 64.9968 7.10425 65.7948 7.98711L66.0915 7.71889C65.1975 6.72974 63.9036 6.249 62.2441 6.249V6.649ZM65.7975 7.99007C66.6135 8.85705 67.0391 10.1759 67.0391 11.984H67.4391C67.4391 10.1201 67.0008 8.68495 66.0888 7.71593L65.7975 7.99007ZM67.0391 11.984V17.789H67.4391V11.984H67.0391ZM67.0391 17.789C67.0391 19.5967 66.6136 20.9258 65.7962 21.8113L66.0901 22.0827C67.0007 21.0962 67.4391 19.6533 67.4391 17.789H67.0391ZM65.7961 21.8115C64.9984 22.677 63.8258 23.124 62.2441 23.124V23.524C63.9024 23.524 65.1959 23.053 66.0902 22.0825L65.7961 21.8115ZM62.2441 23.124C60.6627 23.124 59.4799 22.6771 58.6638 21.8099L58.3725 22.0841C59.2843 23.0529 60.5856 23.524 62.2441 23.524V23.124ZM58.6665 21.8129C57.8661 20.9273 57.4491 19.5977 57.4491 17.789H57.0491C57.0491 19.6523 57.4782 21.0947 58.3698 22.0811L58.6665 21.8129ZM57.4491 17.789V11.984H57.0491V17.789H57.4491ZM57.4491 11.984C57.4491 10.175 57.8663 8.85547 58.6652 7.98853L58.3711 7.71746C57.478 8.68653 57.0491 10.121 57.0491 11.984H57.4491ZM58.6651 7.98865C59.4815 7.10419 60.6638 6.649 62.2441 6.649V6.249C60.5845 6.249 59.2828 6.72981 58.3712 7.71734L58.6651 7.98865ZM62.2441 8.193C61.3 8.193 60.5602 8.49026 60.063 9.11181C59.5725 9.72484 59.3441 10.6216 59.3441 11.768H59.7441C59.7441 10.6644 59.9657 9.87366 60.3753 9.36169C60.7781 8.85824 61.3883 8.593 62.2441 8.593V8.193ZM59.3441 11.768V18.005H59.7441V11.768H59.3441ZM59.3441 18.005C59.3441 19.1514 59.5725 20.0482 60.063 20.6612C60.5602 21.2827 61.3 21.58 62.2441 21.58V21.18C61.3883 21.18 60.7781 20.9148 60.3753 20.4113C59.9657 19.8993 59.7441 19.1086 59.7441 18.005H59.3441ZM62.2441 21.58C63.1883 21.58 63.9281 21.2827 64.4253 20.6612C64.9157 20.0482 65.1441 19.1514 65.1441 18.005H64.7441C64.7441 19.1086 64.5225 19.8993 64.113 20.4113C63.7102 20.9148 63.1 21.18 62.2441 21.18V21.58ZM65.1441 18.005V11.768H64.7441V18.005H65.1441ZM65.1441 11.768C65.1441 10.6216 64.9157 9.72484 64.4253 9.11181C63.9281 8.49026 63.1883 8.193 62.2441 8.193V8.593C63.1 8.593 63.7102 8.85824 64.113 9.36169C64.5225 9.87366 64.7441 10.6644 64.7441 11.768H65.1441Z" fill="#2B364A"/>
<path d="M32.0037 17.5019C32.0037 26.0633 25.0633 33.0037 16.5019 33.0037C7.94042 33.0037 1 26.0633 1 17.5019C1 8.94042 7.94042 2 16.5019 2C25.0633 2 32.0037 8.94042 32.0037 17.5019Z" fill="#66C1A7" stroke="#6AA292" stroke-width="2"/>
<path d="M15.0574 8.80997C14.4262 10.0063 13.1848 12.3925 12.298 14.1127C12.2012 14.301 12.103 14.4911 12.0052 14.6805L12.0047 14.6815C11.2093 16.2216 10.4382 17.7148 10.5986 17.8298C10.7445 17.9345 12.0848 16.8066 13.6312 15.505L13.6316 15.5047C13.9949 15.199 14.3695 14.8836 14.7428 14.5725C16.8034 12.9562 18.4657 11.5577 18.5523 11.3668C18.6817 11.1975 18.8612 10.9506 18.8612 10.5137C18.8612 9.92826 18.4734 8.93724 17.8126 7.96154C17.3059 7.21279 16.8534 6.68756 16.5703 6.68756C16.2872 6.68756 15.8175 7.36763 15.0574 8.80997Z" fill="white"/>
<path d="M17.0595 17.6318C17.3798 17.9507 18.8637 18.5316 21.3064 19.4585C21.5288 19.5432 21.7485 19.627 21.9639 19.7091L21.964 19.7091C23.7174 20.3775 25.18 20.935 25.4131 20.9765C25.7741 21.0402 25.8882 20.9574 25.8882 20.635C25.8882 20.4017 24.5882 18.3932 23.1082 16.1236C22.6528 15.4258 22.2388 14.7633 21.8743 14.1801C21.0544 12.8682 20.4854 11.9576 20.2596 11.9492C19.9911 11.9391 19.4693 12.5896 18.7597 13.4742C18.6073 13.6642 18.4462 13.865 18.2771 14.0724C18.1454 14.2342 18.0196 14.3869 17.9003 14.5315C17.1365 15.4583 16.6441 16.0557 16.6218 16.6148C16.5978 17.2165 16.9651 17.5466 17.0464 17.6197C17.0524 17.6251 17.0569 17.6292 17.0595 17.6318Z" fill="white"/>
<path d="M9.91443 19.7717C9.66319 19.8651 9.32117 20.1217 9.15649 20.3423C8.9897 20.5608 8.45978 21.4813 7.9763 22.3849C7.49283 23.2885 7.09802 24.1709 7.09802 24.3469C7.09802 24.523 7.16252 24.6934 7.36193 24.7775C7.56134 24.8616 9.66741 24.4615 12.165 23.9376C14.6626 23.4137 17.8443 22.7349 19.2377 22.4295C20.6311 22.124 22.3869 21.6739 22.6192 21.5784C22.6707 21.5573 22.9281 21.4233 22.6192 21.3457C22.5435 21.3201 21.9629 21.2379 21.089 21.1141C19.9392 20.9513 18.2817 20.7165 16.5986 20.4441C13.6387 19.9648 11.0249 19.5787 10.7927 19.5872C10.5605 19.5957 10.1657 19.6784 9.91443 19.7717Z" fill="white"/>
</svg>
