<svg width="188" height="36" viewBox="0 0 188 36" fill="none" xmlns="http://www.w3.org/2000/svg">
<path d="M174 6.25C173.586 6.25 173.25 6.58579 173.25 7V7.75H169C168.586 7.75 168.25 8.08579 168.25 8.5C168.25 8.91421 168.586 9.25 169 9.25H183C183.414 9.25 183.75 8.91421 183.75 8.5C183.75 8.08579 183.414 7.75 183 7.75H178.75V7C178.75 6.58579 178.414 6.25 178 6.25H174Z" fill="black"/>
<path d="M174 14.65C174.414 14.65 174.75 14.9858 174.75 15.4L174.75 22.4C174.75 22.8142 174.414 23.15 174 23.15C173.586 23.15 173.25 22.8142 173.25 22.4L173.25 15.4C173.25 14.9858 173.586 14.65 174 14.65Z" fill="black"/>
<path d="M178.75 15.4C178.75 14.9858 178.414 14.65 178 14.65C177.586 14.65 177.25 14.9858 177.25 15.4V22.4C177.25 22.8142 177.586 23.15 178 23.15C178.414 23.15 178.75 22.8142 178.75 22.4V15.4Z" fill="black"/>
<path fill-rule="evenodd" clip-rule="evenodd" d="M169.991 11.9172C170.034 11.5374 170.355 11.25 170.737 11.25H181.263C181.645 11.25 181.966 11.5374 182.009 11.9172L182.209 13.7185C182.572 16.9838 182.572 20.2793 182.209 23.5446L182.189 23.722C182.045 25.0181 181.04 26.0517 179.749 26.2325C177.262 26.5807 174.738 26.5807 172.251 26.2325C170.96 26.0517 169.955 25.0181 169.811 23.722L169.791 23.5446C169.428 20.2793 169.428 16.9838 169.791 13.7185L169.991 11.9172ZM171.408 12.75L171.282 13.8842C170.932 17.0394 170.932 20.2238 171.282 23.379L171.302 23.5563C171.37 24.171 171.847 24.6612 172.459 24.747C174.808 25.0758 177.192 25.0758 179.541 24.747C180.153 24.6612 180.63 24.171 180.698 23.5563L180.718 23.379C181.068 20.2238 181.068 17.0394 180.718 13.8842L180.592 12.75H171.408Z" fill="black"/>
<path d="M87.179 8.609C84.965 8.645 83.363 9.014 82.373 9.716C81.401 10.4 80.915 11.426 80.915 12.794V14.306C82.193 13.1 83.399 12.497 84.533 12.497C85.829 12.497 86.828 12.902 87.53 13.712C88.25 14.504 88.61 15.692 88.61 17.276V18.329C88.61 19.967 88.178 21.209 87.314 22.055C86.468 22.901 85.226 23.324 83.588 23.324C81.986 23.324 80.753 22.883 79.889 22.001C79.043 21.101 78.62 19.832 78.62 18.194V13.226C78.62 11.102 79.331 9.482 80.753 8.366C82.193 7.25 84.335 6.674 87.179 6.638V8.609ZM84.128 14.495C83.264 14.495 82.193 15.08 80.915 16.25V18.329C80.915 20.363 81.806 21.38 83.588 21.38C85.406 21.38 86.315 20.408 86.315 18.464V17.195C86.315 16.313 86.117 15.647 85.721 15.197C85.343 14.729 84.812 14.495 84.128 14.495ZM96.5645 6.449C98.1845 6.449 99.4175 6.917 100.263 7.853C101.127 8.771 101.559 10.148 101.559 11.984V17.789C101.559 19.625 101.127 21.011 100.263 21.947C99.4175 22.865 98.1845 23.324 96.5645 23.324C94.9445 23.324 93.7025 22.865 92.8385 21.947C91.9925 21.011 91.5695 19.625 91.5695 17.789V11.984C91.5695 10.148 91.9925 8.771 92.8385 7.853C93.7025 6.917 94.9445 6.449 96.5645 6.449ZM96.5645 8.393C94.7645 8.393 93.8645 9.518 93.8645 11.768V18.005C93.8645 20.255 94.7645 21.38 96.5645 21.38C98.3645 21.38 99.2645 20.255 99.2645 18.005V11.768C99.2645 9.518 98.3645 8.393 96.5645 8.393Z" fill="#2B364A"/>
<path d="M87.179 8.609L87.1823 8.80897L87.379 8.80577V8.609H87.179ZM82.373 9.716L82.4881 9.87956L82.4887 9.87915L82.373 9.716ZM80.915 14.306H80.715V14.7697L81.0523 14.4515L80.915 14.306ZM87.53 13.712L87.3788 13.843L87.382 13.8465L87.53 13.712ZM87.314 22.055L87.1741 21.9121L87.1726 21.9136L87.314 22.055ZM79.889 22.001L79.7432 22.138L79.7461 22.141L79.889 22.001ZM80.753 8.366L80.6305 8.20791L80.6295 8.20867L80.753 8.366ZM87.179 6.638H87.379V6.43545L87.1765 6.43802L87.179 6.638ZM80.915 16.25L80.7799 16.1025L80.715 16.1619V16.25H80.915ZM85.721 15.197L85.5653 15.3228L85.5709 15.3291L85.721 15.197ZM87.1757 8.40903C84.9502 8.44521 83.2977 8.8151 82.2573 9.55285L82.4887 9.87915C83.4283 9.2129 84.9798 8.84478 87.1823 8.80897L87.1757 8.40903ZM82.2579 9.55244C81.224 10.28 80.715 11.3722 80.715 12.794H81.115C81.115 11.4798 81.578 10.52 82.4881 9.87956L82.2579 9.55244ZM80.715 12.794V14.306H81.115V12.794H80.715ZM81.0523 14.4515C82.3129 13.2619 83.4719 12.697 84.533 12.697V12.297C83.3261 12.297 82.0731 12.9381 80.7777 14.1605L81.0523 14.4515ZM84.533 12.697C85.7843 12.697 86.7227 13.0859 87.3789 13.843L87.6811 13.581C86.9333 12.7181 85.8737 12.297 84.533 12.297V12.697ZM87.382 13.8465C88.0556 14.5875 88.41 15.7184 88.41 17.276H88.81C88.81 15.6656 88.4444 14.4205 87.678 13.5775L87.382 13.8465ZM88.41 17.276V18.329H88.81V17.276H88.41ZM88.41 18.329C88.41 19.9329 87.9876 21.1155 87.1741 21.9121L87.4539 22.1979C88.3684 21.3025 88.81 20.0011 88.81 18.329H88.41ZM87.1726 21.9136C86.3762 22.71 85.193 23.124 83.588 23.124V23.524C85.259 23.524 86.5598 23.092 87.4554 22.1964L87.1726 21.9136ZM83.588 23.124C82.023 23.124 80.848 22.6941 80.0319 21.861L79.7461 22.141C80.658 23.0719 81.949 23.524 83.588 23.524V23.124ZM80.0347 21.864C79.2337 21.0119 78.82 19.7981 78.82 18.194H78.42C78.42 19.8659 78.8523 21.1901 79.7433 22.138L80.0347 21.864ZM78.82 18.194V13.226H78.42V18.194H78.82ZM78.82 13.226C78.82 11.1513 79.5115 9.59455 80.8765 8.52333L80.6295 8.20867C79.1505 9.36945 78.42 11.0527 78.42 13.226H78.82ZM80.8755 8.52408C82.2666 7.44596 84.3582 6.87372 87.1815 6.83798L87.1765 6.43802C84.3118 6.47428 82.1194 7.05404 80.6305 8.20792L80.8755 8.52408ZM86.979 6.638V8.609H87.379V6.638H86.979ZM84.128 14.295C83.1833 14.295 82.0631 14.9278 80.7799 16.1025L81.0501 16.3975C82.3229 15.2322 83.3447 14.695 84.128 14.695V14.295ZM80.715 16.25V18.329H81.115V16.25H80.715ZM80.715 18.329C80.715 19.3708 80.9426 20.1895 81.4328 20.749C81.9274 21.3136 82.6588 21.58 83.588 21.58V21.18C82.7352 21.18 82.1301 20.9379 81.7337 20.4855C81.3329 20.028 81.115 19.3212 81.115 18.329H80.715ZM83.588 21.58C84.5314 21.58 85.2747 21.3272 85.7793 20.7876C86.2816 20.2506 86.515 19.4636 86.515 18.464H86.115C86.115 19.4084 85.8939 20.0794 85.4872 20.5144C85.0828 20.9468 84.4626 21.18 83.588 21.18V21.58ZM86.515 18.464V17.195H86.115V18.464H86.515ZM86.515 17.195C86.515 16.2868 86.3115 15.5653 85.8711 15.0649L85.5709 15.3291C85.9225 15.7287 86.115 16.3392 86.115 17.195H86.515ZM85.8766 15.0713C85.4551 14.5495 84.8631 14.295 84.128 14.295V14.695C84.7609 14.695 85.2309 14.9085 85.5654 15.3227L85.8766 15.0713ZM100.263 7.853L100.115 7.98713L100.118 7.99007L100.263 7.853ZM100.263 21.947L100.116 21.8113L100.116 21.8115L100.263 21.947ZM92.8385 21.947L92.69 22.0811L92.6928 22.0841L92.8385 21.947ZM92.8385 7.853L92.6915 7.71734L92.6914 7.71746L92.8385 7.853ZM96.5645 6.649C98.145 6.649 99.3171 7.10425 100.115 7.98711L100.412 7.71889C99.5178 6.72974 98.2239 6.249 96.5645 6.249V6.649ZM100.118 7.99007C100.934 8.85705 101.359 10.1759 101.359 11.984H101.759C101.759 10.1201 101.321 8.68495 100.409 7.71593L100.118 7.99007ZM101.359 11.984V17.789H101.759V11.984H101.359ZM101.359 17.789C101.359 19.5967 100.934 20.9258 100.116 21.8113L100.41 22.0827C101.321 21.0962 101.759 19.6533 101.759 17.789H101.359ZM100.116 21.8115C99.3187 22.677 98.1462 23.124 96.5645 23.124V23.524C98.2228 23.524 99.5162 23.053 100.411 22.0825L100.116 21.8115ZM96.5645 23.124C94.983 23.124 93.8003 22.6771 92.9841 21.8099L92.6928 22.0841C93.6047 23.0529 94.9059 23.524 96.5645 23.524V23.124ZM92.9868 21.8129C92.1864 20.9273 91.7695 19.5977 91.7695 17.789H91.3695C91.3695 19.6523 91.7985 21.0947 92.6901 22.0811L92.9868 21.8129ZM91.7695 17.789V11.984H91.3695V17.789H91.7695ZM91.7695 11.984C91.7695 10.175 92.1866 8.85547 92.9855 7.98853L92.6914 7.71746C91.7983 8.68653 91.3695 10.121 91.3695 11.984H91.7695ZM92.9854 7.98865C93.8018 7.10419 94.9841 6.649 96.5645 6.649V6.249C94.9048 6.249 93.6031 6.72981 92.6915 7.71734L92.9854 7.98865ZM96.5645 8.193C95.6203 8.193 94.8805 8.49026 94.3833 9.11181C93.8929 9.72484 93.6645 10.6216 93.6645 11.768H94.0645C94.0645 10.6644 94.2861 9.87366 94.6956 9.36169C95.0984 8.85824 95.7086 8.593 96.5645 8.593V8.193ZM93.6645 11.768V18.005H94.0645V11.768H93.6645ZM93.6645 18.005C93.6645 19.1514 93.8929 20.0482 94.3833 20.6612C94.8805 21.2827 95.6203 21.58 96.5645 21.58V21.18C95.7086 21.18 95.0984 20.9148 94.6956 20.4113C94.2861 19.8993 94.0645 19.1086 94.0645 18.005H93.6645ZM96.5645 21.58C97.5086 21.58 98.2484 21.2827 98.7456 20.6612C99.2361 20.0482 99.4645 19.1514 99.4645 18.005H99.0645C99.0645 19.1086 98.8429 19.8993 98.4333 20.4113C98.0305 20.9148 97.4203 21.18 96.5645 21.18V21.58ZM99.4645 18.005V11.768H99.0645V18.005H99.4645ZM99.4645 11.768C99.4645 10.6216 99.2361 9.72484 98.7456 9.11181C98.2484 8.49026 97.5086 8.193 96.5645 8.193V8.593C97.4203 8.593 98.0305 8.85824 98.4333 9.36169C98.8429 9.87366 99.0645 10.6644 99.0645 11.768H99.4645Z" fill="#2B364A"/>
<path d="M32.0037 18.5019C32.0037 27.0633 25.0633 34.0037 16.5019 34.0037C7.94042 34.0037 1 27.0633 1 18.5019C1 9.94042 7.94042 3 16.5019 3C25.0633 3 32.0037 9.94042 32.0037 18.5019Z" fill="#66C1A7" stroke="#6AA292" stroke-width="2"/>
<path d="M15.0574 9.80997C14.4262 11.0063 13.1848 13.3925 12.298 15.1127C12.2012 15.301 12.103 15.4911 12.0052 15.6805L12.0047 15.6815C11.2093 17.2216 10.4382 18.7148 10.5986 18.8298C10.7445 18.9345 12.0848 17.8066 13.6312 16.505L13.6316 16.5047C13.9949 16.199 14.3695 15.8836 14.7428 15.5725C16.8034 13.9562 18.4657 12.5577 18.5523 12.3668C18.6817 12.1975 18.8612 11.9506 18.8612 11.5137C18.8612 10.9283 18.4734 9.93724 17.8126 8.96154C17.3059 8.21279 16.8534 7.68756 16.5703 7.68756C16.2872 7.68756 15.8175 8.36763 15.0574 9.80997Z" fill="white"/>
<path d="M17.0595 18.6318C17.3798 18.9507 18.8637 19.5316 21.3064 20.4585C21.5288 20.5432 21.7485 20.627 21.9639 20.7091L21.964 20.7091C23.7174 21.3775 25.18 21.935 25.4131 21.9765C25.7741 22.0402 25.8882 21.9574 25.8882 21.635C25.8882 21.4017 24.5882 19.3932 23.1082 17.1236C22.6528 16.4258 22.2388 15.7633 21.8743 15.1801C21.0544 13.8682 20.4854 12.9576 20.2596 12.9492C19.9911 12.9391 19.4693 13.5896 18.7597 14.4742C18.6073 14.6642 18.4462 14.865 18.2771 15.0724C18.1454 15.2342 18.0196 15.3869 17.9003 15.5315C17.1365 16.4583 16.6441 17.0557 16.6218 17.6148C16.5978 18.2165 16.9651 18.5466 17.0464 18.6197C17.0524 18.6251 17.0569 18.6292 17.0595 18.6318Z" fill="white"/>
<path d="M9.91443 20.7717C9.66319 20.8651 9.32117 21.1217 9.15649 21.3423C8.9897 21.5608 8.45978 22.4813 7.9763 23.3849C7.49283 24.2885 7.09802 25.1709 7.09802 25.3469C7.09802 25.523 7.16252 25.6934 7.36193 25.7775C7.56134 25.8616 9.66741 25.4615 12.165 24.9376C14.6626 24.4137 17.8443 23.7349 19.2377 23.4295C20.6311 23.124 22.3869 22.6739 22.6192 22.5784C22.6707 22.5573 22.9281 22.4233 22.6192 22.3457C22.5435 22.3201 21.9629 22.2379 21.089 22.1141C19.9392 21.9513 18.2817 21.7165 16.5986 21.4441C13.6387 20.9648 11.0249 20.5787 10.7927 20.5872C10.5605 20.5957 10.1657 20.6784 9.91443 20.7717Z" fill="white"/>
</svg>
