<svg width="62" height="30" viewBox="0 0 62 30" fill="none" xmlns="http://www.w3.org/2000/svg">
<path d="M45.082 8.514C46.402 8.514 47.4067 8.87333 48.096 9.592C48.7853 10.3107 49.13 11.352 49.13 12.716V17.424C49.13 19.096 48.756 20.3207 48.008 21.098C47.2747 21.8753 46.1527 22.264 44.642 22.264C44.2167 22.264 43.718 22.22 43.146 22.132C42.5887 22.0587 42.1413 21.9853 41.804 21.912V20.35C42.244 20.4233 42.7573 20.504 43.344 20.592C43.9307 20.6653 44.3633 20.702 44.642 20.702C45.5367 20.702 46.1967 20.46 46.622 19.976C47.0473 19.4773 47.26 18.6707 47.26 17.556V15.884C46.2333 16.8667 45.236 17.358 44.268 17.358C43.2267 17.358 42.42 17.028 41.848 16.368C41.276 15.708 40.99 14.74 40.99 13.464V12.606C40.99 11.286 41.3347 10.274 42.024 9.57C42.7133 8.866 43.7327 8.514 45.082 8.514ZM45.082 10.098C43.6007 10.098 42.86 10.8973 42.86 12.496V13.53C42.86 14.2487 43.014 14.7987 43.322 15.18C43.63 15.5467 44.07 15.73 44.642 15.73C45.346 15.73 46.2187 15.2533 47.26 14.3V12.606C47.26 10.934 46.534 10.098 45.082 10.098ZM55.9414 8.514C57.2614 8.514 58.2661 8.89533 58.9554 9.658C59.6594 10.406 60.0114 11.528 60.0114 13.024V17.754C60.0114 19.25 59.6594 20.3793 58.9554 21.142C58.2661 21.89 57.2614 22.264 55.9414 22.264C54.6214 22.264 53.6094 21.89 52.9054 21.142C52.2161 20.3793 51.8714 19.25 51.8714 17.754V13.024C51.8714 11.528 52.2161 10.406 52.9054 9.658C53.6094 8.89533 54.6214 8.514 55.9414 8.514ZM55.9414 10.098C54.4747 10.098 53.7414 11.0147 53.7414 12.848V17.93C53.7414 19.7633 54.4747 20.68 55.9414 20.68C57.4081 20.68 58.1414 19.7633 58.1414 17.93V12.848C58.1414 11.0147 57.4081 10.098 55.9414 10.098Z" fill="#2B364A"/>
<path d="M48.096 9.592L47.7352 9.93811L48.096 9.592ZM48.008 21.098L47.6477 20.7513L47.6443 20.7549L48.008 21.098ZM43.146 22.132L43.222 21.6377L43.2112 21.6363L43.146 22.132ZM41.804 21.912H41.304V22.315L41.6978 22.4006L41.804 21.912ZM41.804 20.35L41.8862 19.8568L41.304 19.7598V20.35H41.804ZM43.344 20.592L43.2698 21.0866L43.282 21.0881L43.344 20.592ZM46.622 19.976L46.9976 20.3061L47.0024 20.3005L46.622 19.976ZM47.26 15.884H47.76V14.7133L46.9143 15.5228L47.26 15.884ZM41.848 16.368L41.4702 16.6955L41.848 16.368ZM42.024 9.57L42.3813 9.91981V9.91981L42.024 9.57ZM43.322 15.18L42.933 15.4942L42.9391 15.5016L43.322 15.18ZM47.26 14.3L47.5976 14.6688L47.76 14.5201V14.3H47.26ZM45.082 9.014C46.312 9.014 47.1679 9.34674 47.7352 9.93811L48.4568 9.24589C47.6454 8.39992 46.492 8.014 45.082 8.014V9.014ZM47.7352 9.93811C48.3065 10.5337 48.63 11.4325 48.63 12.716H49.63C49.63 11.2715 49.2642 10.0876 48.4568 9.24589L47.7352 9.93811ZM48.63 12.716V17.424H49.63V12.716H48.63ZM48.63 17.424C48.63 19.0357 48.2676 20.1071 47.6477 20.7513L48.3683 21.4447C49.2444 20.5342 49.63 19.1563 49.63 17.424H48.63ZM47.6443 20.7549C47.039 21.3965 46.0731 21.764 44.642 21.764V22.764C46.2322 22.764 47.5103 22.3542 48.3717 21.4411L47.6443 20.7549ZM44.642 21.764C44.2493 21.764 43.7772 21.7232 43.222 21.6378L43.07 22.6262C43.6588 22.7168 44.184 22.764 44.642 22.764V21.764ZM43.2112 21.6363C42.6603 21.5638 42.2283 21.4926 41.9102 21.4234L41.6978 22.4006C42.0544 22.4781 42.5171 22.5536 43.0808 22.6277L43.2112 21.6363ZM42.304 21.912V20.35H41.304V21.912H42.304ZM41.7218 20.8432C42.1652 20.9171 42.6813 20.9982 43.2698 21.0865L43.4182 20.0975C42.8334 20.0098 42.3228 19.9296 41.8862 19.8568L41.7218 20.8432ZM43.282 21.0881C43.8717 21.1619 44.3303 21.202 44.642 21.202V20.202C44.3963 20.202 43.9896 20.1688 43.406 20.0959L43.282 21.0881ZM44.642 21.202C45.6224 21.202 46.4447 20.9352 46.9976 20.3061L46.2464 19.6459C45.9486 19.9848 45.4509 20.202 44.642 20.202V21.202ZM47.0024 20.3005C47.5431 19.6665 47.76 18.7132 47.76 17.556H46.76C46.76 18.6281 46.5515 19.2881 46.2416 19.6515L47.0024 20.3005ZM47.76 17.556V15.884H46.76V17.556H47.76ZM46.9143 15.5228C45.9375 16.4577 45.0578 16.858 44.268 16.858V17.858C45.4142 17.858 46.5291 17.2757 47.6057 16.2452L46.9143 15.5228ZM44.268 16.858C43.3411 16.858 42.6845 16.5698 42.2258 16.0405L41.4702 16.6955C42.1555 17.4862 43.1123 17.858 44.268 17.858V16.858ZM42.2258 16.0405C41.7621 15.5054 41.49 14.6739 41.49 13.464H40.49C40.49 14.8061 40.7899 15.9106 41.4702 16.6955L42.2258 16.0405ZM41.49 13.464V12.606H40.49V13.464H41.49ZM41.49 12.606C41.49 11.3711 41.8111 10.5021 42.3813 9.91981L41.6667 9.22019C40.8583 10.0459 40.49 11.2009 40.49 12.606H41.49ZM42.3813 9.91981C42.946 9.34303 43.8161 9.014 45.082 9.014V8.014C43.6492 8.014 42.4806 8.38897 41.6667 9.22019L42.3813 9.91981ZM45.082 9.598C44.2541 9.598 43.544 9.82316 43.0487 10.3577C42.5601 10.885 42.36 11.6287 42.36 12.496H43.36C43.36 11.7647 43.5302 11.3094 43.7823 11.0373C44.0276 10.7725 44.4286 10.598 45.082 10.598V9.598ZM42.36 12.496V13.53H43.36V12.496H42.36ZM42.36 13.53C42.36 14.3114 42.5264 14.9907 42.933 15.4942L43.711 14.8658C43.5016 14.6066 43.36 14.1859 43.36 13.53H42.36ZM42.9391 15.5016C43.3608 16.0036 43.954 16.23 44.642 16.23V15.23C44.186 15.23 43.8992 15.0898 43.7049 14.8584L42.9391 15.5016ZM44.642 16.23C45.5478 16.23 46.5434 15.6339 47.5976 14.6688L46.9224 13.9312C45.8939 14.8728 45.1442 15.23 44.642 15.23V16.23ZM47.76 14.3V12.606H46.76V14.3H47.76ZM47.76 12.606C47.76 11.7089 47.5667 10.9427 47.093 10.3972C46.6076 9.83816 45.9049 9.598 45.082 9.598V10.598C45.7111 10.598 46.0974 10.7758 46.338 11.0528C46.5903 11.3433 46.76 11.8311 46.76 12.606H47.76ZM58.9554 9.658L58.5844 9.99334L58.5913 10.0007L58.9554 9.658ZM58.9554 21.142L58.588 20.8029L58.5877 20.8032L58.9554 21.142ZM52.9054 21.142L52.5344 21.4773L52.5413 21.4847L52.9054 21.142ZM52.9054 9.658L52.538 9.31886L52.5377 9.31916L52.9054 9.658ZM55.9414 9.014C57.1628 9.014 58.0152 9.36347 58.5845 9.99327L59.3263 9.32273C58.5169 8.4272 57.3601 8.014 55.9414 8.014V9.014ZM58.5913 10.0007C59.1752 10.6211 59.5114 11.5978 59.5114 13.024H60.5114C60.5114 11.4582 60.1436 10.1909 59.3195 9.31532L58.5913 10.0007ZM59.5114 13.024V17.754H60.5114V13.024H59.5114ZM59.5114 17.754C59.5114 19.1793 59.1756 20.1663 58.588 20.8029L59.3228 21.4811C60.1432 20.5924 60.5114 19.3207 60.5114 17.754H59.5114ZM58.5877 20.8032C58.0192 21.4201 57.1657 21.764 55.9414 21.764V22.764C57.3572 22.764 58.5129 22.3599 59.3231 21.4808L58.5877 20.8032ZM55.9414 21.764C54.7177 21.764 53.8539 21.4202 53.2695 20.7993L52.5413 21.4847C53.3649 22.3598 54.5251 22.764 55.9414 22.764V21.764ZM53.2763 20.8067C52.701 20.1702 52.3714 19.1817 52.3714 17.754H51.3714C51.3714 19.3183 51.7311 20.5885 52.5345 21.4773L53.2763 20.8067ZM52.3714 17.754V13.024H51.3714V17.754H52.3714ZM52.3714 13.024C52.3714 11.5954 52.7014 10.6172 53.2731 9.99684L52.5377 9.31916C51.7307 10.1948 51.3714 11.4606 51.3714 13.024H52.3714ZM53.2728 9.99714C53.8579 9.36331 54.7206 9.014 55.9414 9.014V8.014C54.5222 8.014 53.3609 8.42735 52.538 9.31886L53.2728 9.99714ZM55.9414 9.598C55.0977 9.598 54.3857 9.86718 53.901 10.4732C53.4332 11.0578 53.2414 11.8779 53.2414 12.848H54.2414C54.2414 11.9848 54.4162 11.4298 54.6818 11.0978C54.9304 10.7872 55.3184 10.598 55.9414 10.598V9.598ZM53.2414 12.848V17.93H54.2414V12.848H53.2414ZM53.2414 17.93C53.2414 18.9001 53.4332 19.7202 53.901 20.3048C54.3857 20.9108 55.0977 21.18 55.9414 21.18V20.18C55.3184 20.18 54.9304 19.9908 54.6818 19.6802C54.4162 19.3482 54.2414 18.7932 54.2414 17.93H53.2414ZM55.9414 21.18C56.7851 21.18 57.4971 20.9108 57.9818 20.3048C58.4496 19.7202 58.6414 18.9001 58.6414 17.93H57.6414C57.6414 18.7932 57.4666 19.3482 57.201 19.6802C56.9524 19.9908 56.5644 20.18 55.9414 20.18V21.18ZM58.6414 17.93V12.848H57.6414V17.93H58.6414ZM58.6414 12.848C58.6414 11.8779 58.4496 11.0578 57.9818 10.4732C57.4971 9.86718 56.7851 9.598 55.9414 9.598V10.598C56.5644 10.598 56.9524 10.7872 57.201 11.0978C57.4666 11.4298 57.6414 11.9848 57.6414 12.848H58.6414Z" fill="#2B364A"/>
<path d="M28.0037 14.5019C28.0037 21.9587 21.9587 28.0037 14.5019 28.0037C7.04499 28.0037 1 21.9587 1 14.5019C1 7.04499 7.04499 1 14.5019 1C21.9587 1 28.0037 7.04499 28.0037 14.5019Z" fill="#66C1A7" stroke="#6AA292" stroke-width="2"/>
<path d="M13.2438 6.93135C12.694 7.9733 11.6127 10.0517 10.8404 11.5499C10.7561 11.714 10.6705 11.8795 10.5854 12.0445L10.5849 12.0453C9.89215 13.3868 9.22054 14.6873 9.36027 14.7875C9.48734 14.8787 10.6547 13.8962 12.0016 12.7626L12.0019 12.7623C12.3183 12.496 12.6447 12.2214 12.9697 11.9504C14.7645 10.5426 16.2124 9.32457 16.2877 9.15831C16.4005 9.01084 16.5568 8.79582 16.5568 8.41525C16.5568 7.90536 16.2191 7.04219 15.6435 6.19237C15.2022 5.54023 14.8081 5.08276 14.5615 5.08276C14.3149 5.08276 13.9058 5.67509 13.2438 6.93135Z" fill="white"/>
<path d="M14.9876 14.615C15.2665 14.8928 16.559 15.3987 18.6866 16.2061C18.8803 16.2798 19.0716 16.3528 19.2592 16.4243L19.2593 16.4243C20.7865 17.0064 22.0603 17.492 22.2634 17.5282C22.5779 17.5836 22.6772 17.5116 22.6772 17.2308C22.6772 17.0276 21.545 15.2781 20.2559 13.3014C19.8592 12.6936 19.4986 12.1166 19.1812 11.6087C18.4671 10.466 17.9714 9.67292 17.7748 9.66554C17.5409 9.65678 17.0864 10.2233 16.4684 10.9938C16.3356 11.1593 16.1953 11.3342 16.0481 11.5148C15.9334 11.6557 15.8238 11.7887 15.7199 11.9147C15.0546 12.7219 14.6257 13.2423 14.6063 13.7292C14.5854 14.2533 14.9053 14.5408 14.9762 14.6045C14.9814 14.6092 14.9853 14.6127 14.9876 14.615Z" fill="white"/>
<path d="M8.76432 16.4789C8.5455 16.5602 8.2476 16.7837 8.10417 16.9758C7.9589 17.1661 7.49735 17.9679 7.07625 18.7549C6.65515 19.5419 6.31128 20.3104 6.31128 20.4638C6.31128 20.6171 6.36745 20.7655 6.54114 20.8388C6.71482 20.9121 8.54918 20.5635 10.7246 20.1072C12.8999 19.6509 15.6711 19.0597 16.8847 18.7937C18.0984 18.5277 19.6277 18.1356 19.83 18.0524C19.8748 18.034 20.099 17.9173 19.83 17.8498C19.764 17.8275 19.2583 17.7558 18.4972 17.648C17.4957 17.5062 16.052 17.3017 14.5862 17.0645C12.0081 16.647 9.73157 16.3108 9.52929 16.3181C9.32702 16.3255 8.98315 16.3976 8.76432 16.4789Z" fill="white"/>
</svg>
