<svg width="49" height="25" viewBox="0 0 49 25" fill="none" xmlns="http://www.w3.org/2000/svg">
<path d="M35.158 6.966C36.238 6.966 37.06 7.26 37.624 7.848C38.188 8.436 38.47 9.288 38.47 10.404V14.256C38.47 15.624 38.164 16.626 37.552 17.262C36.952 17.898 36.034 18.216 34.798 18.216C34.45 18.216 34.042 18.18 33.574 18.108C33.118 18.048 32.752 17.988 32.476 17.928V16.65C32.836 16.71 33.256 16.776 33.736 16.848C34.216 16.908 34.57 16.938 34.798 16.938C35.53 16.938 36.07 16.74 36.418 16.344C36.766 15.936 36.94 15.276 36.94 14.364V12.996C36.1 13.8 35.284 14.202 34.492 14.202C33.64 14.202 32.98 13.932 32.512 13.392C32.044 12.852 31.81 12.06 31.81 11.016V10.314C31.81 9.234 32.092 8.406 32.656 7.83C33.22 7.254 34.054 6.966 35.158 6.966ZM35.158 8.262C33.946 8.262 33.34 8.916 33.34 10.224V11.07C33.34 11.658 33.466 12.108 33.718 12.42C33.97 12.72 34.33 12.87 34.798 12.87C35.374 12.87 36.088 12.48 36.94 11.7V10.314C36.94 8.946 36.346 8.262 35.158 8.262ZM44.043 6.966C45.123 6.966 45.945 7.278 46.509 7.902C47.085 8.514 47.373 9.432 47.373 10.656V14.526C47.373 15.75 47.085 16.674 46.509 17.298C45.945 17.91 45.123 18.216 44.043 18.216C42.963 18.216 42.135 17.91 41.559 17.298C40.995 16.674 40.713 15.75 40.713 14.526V10.656C40.713 9.432 40.995 8.514 41.559 7.902C42.135 7.278 42.963 6.966 44.043 6.966ZM44.043 8.262C42.843 8.262 42.243 9.012 42.243 10.512V14.67C42.243 16.17 42.843 16.92 44.043 16.92C45.243 16.92 45.843 16.17 45.843 14.67V10.512C45.843 9.012 45.243 8.262 44.043 8.262Z" fill="#2B364A"/>
<path d="M37.624 7.848L37.4797 7.98644L37.624 7.848ZM37.552 17.262L37.4079 17.1233L37.4065 17.1248L37.552 17.262ZM33.574 18.108L33.6044 17.9103L33.6001 17.9097L33.574 18.108ZM32.476 17.928H32.276V18.0892L32.4335 18.1234L32.476 17.928ZM32.476 16.65L32.5089 16.4527L32.276 16.4139V16.65H32.476ZM33.736 16.848L33.7063 17.0458L33.7112 17.0465L33.736 16.848ZM36.418 16.344L36.5682 16.476L36.5702 16.4738L36.418 16.344ZM36.94 12.996H37.14V12.5277L36.8017 12.8515L36.94 12.996ZM32.512 13.392L32.3609 13.523L32.512 13.392ZM32.656 7.83L32.7989 7.96992H32.7989L32.656 7.83ZM33.718 12.42L33.5624 12.5457L33.5649 12.5486L33.718 12.42ZM36.94 11.7L37.0751 11.8475L37.14 11.7881V11.7H36.94ZM35.158 7.166C36.202 7.166 36.9645 7.44936 37.4797 7.98644L37.7683 7.70955C37.1555 7.07064 36.274 6.766 35.158 6.766V7.166ZM37.4797 7.98644C37.9965 8.52523 38.27 9.3202 38.27 10.404H38.67C38.67 9.25579 38.3795 8.34677 37.7683 7.70955L37.4797 7.98644ZM38.27 10.404V14.256H38.67V10.404H38.27ZM38.27 14.256C38.27 15.5999 37.9686 16.5406 37.4079 17.1233L37.6961 17.4007C38.3594 16.7114 38.67 15.6481 38.67 14.256H38.27ZM37.4065 17.1248C36.8577 17.7065 36.0022 18.016 34.798 18.016V18.416C36.0658 18.416 37.0463 18.0895 37.6975 17.3992L37.4065 17.1248ZM34.798 18.016C34.4631 18.016 34.0657 17.9813 33.6044 17.9103L33.5436 18.3057C34.0183 18.3787 34.4369 18.416 34.798 18.416V18.016ZM33.6001 17.9097C33.1466 17.85 32.7868 17.7909 32.5185 17.7326L32.4335 18.1234C32.7172 18.1851 33.0894 18.246 33.5479 18.3063L33.6001 17.9097ZM32.676 17.928V16.65H32.276V17.928H32.676ZM32.4431 16.8473C32.8045 16.9075 33.2256 16.9737 33.7063 17.0458L33.7657 16.6502C33.2864 16.5783 32.8675 16.5125 32.5089 16.4527L32.4431 16.8473ZM33.7112 17.0465C34.1924 17.1066 34.5568 17.138 34.798 17.138V16.738C34.5832 16.738 34.2396 16.7094 33.7608 16.6495L33.7112 17.0465ZM34.798 17.138C35.5643 17.138 36.1692 16.9301 36.5682 16.476L36.2678 16.212C35.9708 16.5499 35.4957 16.738 34.798 16.738V17.138ZM36.5702 16.4738C36.9643 16.0117 37.14 15.293 37.14 14.364H36.74C36.74 15.259 36.5677 15.8603 36.2658 16.2142L36.5702 16.4738ZM37.14 14.364V12.996H36.74V14.364H37.14ZM36.8017 12.8515C35.9817 13.6364 35.2127 14.002 34.492 14.002V14.402C35.3553 14.402 36.2183 13.9636 37.0783 13.1405L36.8017 12.8515ZM34.492 14.002C33.6858 14.002 33.0858 13.7487 32.6631 13.261L32.3609 13.523C32.8742 14.1153 33.5942 14.402 34.492 14.402V14.002ZM32.6631 13.261C32.2384 12.771 32.01 12.0336 32.01 11.016H31.61C31.61 12.0864 31.8496 12.933 32.3609 13.523L32.6631 13.261ZM32.01 11.016V10.314H31.61V11.016H32.01ZM32.01 10.314C32.01 9.26804 32.2826 8.49726 32.7989 7.96992L32.5131 7.69007C31.9014 8.31474 31.61 9.19995 31.61 10.314H32.01ZM32.7989 7.96992C33.3131 7.44481 34.0874 7.166 35.158 7.166V6.766C34.0206 6.766 33.1269 7.06319 32.5131 7.69007L32.7989 7.96992ZM35.158 8.062C34.5171 8.062 34.0008 8.23563 33.6478 8.61656C33.2975 8.99462 33.14 9.5428 33.14 10.224H33.54C33.54 9.5972 33.6855 9.16438 33.9412 8.88843C34.1942 8.61537 34.5869 8.462 35.158 8.462V8.062ZM33.14 10.224V11.07H33.54V10.224H33.14ZM33.14 11.07C33.14 11.6831 33.2709 12.1848 33.5624 12.5457L33.8736 12.2943C33.6611 12.0312 33.54 11.6329 33.54 11.07H33.14ZM33.5649 12.5486C33.8623 12.9028 34.2836 13.07 34.798 13.07V12.67C34.3764 12.67 34.0777 12.5372 33.8711 12.2914L33.5649 12.5486ZM34.798 13.07C35.4547 13.07 36.2179 12.6322 37.0751 11.8475L36.8049 11.5525C35.9581 12.3278 35.2933 12.67 34.798 12.67V13.07ZM37.14 11.7V10.314H36.74V11.7H37.14ZM37.14 10.314C37.14 9.60555 36.9868 9.03687 36.6455 8.64386C36.2995 8.24547 35.7908 8.062 35.158 8.062V8.462C35.7132 8.462 36.0955 8.62053 36.3435 8.90614C36.5962 9.19713 36.74 9.65445 36.74 10.314H37.14ZM46.509 7.902L46.3606 8.03613L46.3633 8.03907L46.509 7.902ZM46.509 17.298L46.362 17.1623L46.3619 17.1625L46.509 17.298ZM41.559 17.298L41.4106 17.4321L41.4133 17.4351L41.559 17.298ZM41.559 7.902L41.412 7.76634L41.4119 7.76646L41.559 7.902ZM44.043 7.166C45.0835 7.166 45.8446 7.46525 46.3606 8.03611L46.6573 7.76789C46.0453 7.09074 45.1624 6.766 44.043 6.766V7.166ZM46.3633 8.03907C46.8913 8.60005 47.173 9.45991 47.173 10.656H47.573C47.573 9.40409 47.2786 8.42795 46.6546 7.76493L46.3633 8.03907ZM47.173 10.656V14.526H47.573V10.656H47.173ZM47.173 14.526C47.173 15.7217 46.8914 16.5888 46.362 17.1623L46.6559 17.4337C47.2785 16.7592 47.573 15.7783 47.573 14.526H47.173ZM46.3619 17.1625C45.8462 17.722 45.0847 18.016 44.043 18.016V18.416C45.1613 18.416 46.0437 18.098 46.656 17.4335L46.3619 17.1625ZM44.043 18.016C43.0015 18.016 42.2328 17.7221 41.7046 17.1609L41.4133 17.4351C42.0372 18.0979 42.9244 18.416 44.043 18.416V18.016ZM41.7073 17.1639C41.1889 16.5903 40.913 15.7227 40.913 14.526H40.513C40.513 15.7773 40.801 16.7577 41.4106 17.4321L41.7073 17.1639ZM40.913 14.526V10.656H40.513V14.526H40.913ZM40.913 10.656C40.913 9.45896 41.1891 8.59847 41.706 8.03754L41.4119 7.76646C40.8008 8.42953 40.513 9.40504 40.513 10.656H40.913ZM41.7059 8.03766C42.2344 7.46519 43.0027 7.166 44.043 7.166V6.766C42.9233 6.766 42.0356 7.09081 41.412 7.76634L41.7059 8.03766ZM44.043 8.062C43.3988 8.062 42.884 8.26551 42.5368 8.69956C42.1964 9.12509 42.043 9.74063 42.043 10.512H42.443C42.443 9.78337 42.5896 9.27391 42.8491 8.94944C43.1019 8.63349 43.4871 8.462 44.043 8.462V8.062ZM42.043 10.512V14.67H42.443V10.512H42.043ZM42.043 14.67C42.043 15.4414 42.1964 16.0569 42.5368 16.4824C42.884 16.9165 43.3988 17.12 44.043 17.12V16.72C43.4871 16.72 43.1019 16.5485 42.8491 16.2326C42.5896 15.9081 42.443 15.3986 42.443 14.67H42.043ZM44.043 17.12C44.6871 17.12 45.2019 16.9165 45.5491 16.4824C45.8896 16.0569 46.043 15.4414 46.043 14.67H45.643C45.643 15.3986 45.4964 15.9081 45.2368 16.2326C44.984 16.5485 44.5988 16.72 44.043 16.72V17.12ZM46.043 14.67V10.512H45.643V14.67H46.043ZM46.043 10.512C46.043 9.74063 45.8896 9.12509 45.5491 8.69956C45.2019 8.26551 44.6871 8.062 44.043 8.062V8.462C44.5988 8.462 44.984 8.63349 45.2368 8.94944C45.4964 9.27391 45.643 9.78337 45.643 10.512H46.043Z" fill="#2B364A"/>
<path d="M23.0037 12.0019C23.0037 18.078 18.078 23.0037 12.0019 23.0037C5.9257 23.0037 1 18.078 1 12.0019C1 5.9257 5.9257 1 12.0019 1C18.078 1 23.0037 5.9257 23.0037 12.0019Z" fill="#66C1A7" stroke="#6AA292" stroke-width="2"/>
<path d="M10.9767 5.83308C10.5287 6.68211 9.64765 8.37564 9.01833 9.59649C8.9496 9.73014 8.87993 9.86505 8.81051 9.99946L8.81015 10.0002C8.24566 11.0932 7.69841 12.1529 7.81226 12.2346C7.9158 12.3089 8.86698 11.5084 9.96451 10.5846L9.96479 10.5844C10.2226 10.3674 10.4885 10.1436 10.7534 9.9228C12.2158 8.77572 13.3956 7.78318 13.457 7.6477C13.5489 7.52754 13.6763 7.35233 13.6763 7.04223C13.6763 6.62675 13.4011 5.9234 12.9321 5.23094C12.5725 4.69955 12.2514 4.32678 12.0504 4.32678C11.8495 4.32678 11.5161 4.80944 10.9767 5.83308Z" fill="white"/>
<path d="M12.3976 12.094C12.6249 12.3204 13.6781 12.7327 15.4117 13.3905C15.5695 13.4506 15.7255 13.51 15.8783 13.5683L15.8784 13.5683C17.1228 14.0427 18.1608 14.4383 18.3263 14.4678C18.5825 14.513 18.6634 14.4543 18.6634 14.2255C18.6634 14.0599 17.7408 12.6344 16.6905 11.0237C16.3672 10.5284 16.0734 10.0582 15.8147 9.64434C15.2329 8.71329 14.829 8.06702 14.6687 8.06102C14.4782 8.05387 14.1079 8.51551 13.6042 9.14335C13.4961 9.2782 13.3817 9.42071 13.2617 9.56788C13.1683 9.68272 13.079 9.79107 12.9944 9.89373C12.4523 10.5515 12.1028 10.9755 12.087 11.3723C12.0699 11.7993 12.3306 12.0336 12.3883 12.0855C12.3926 12.0893 12.3958 12.0922 12.3976 12.094Z" fill="white"/>
<path d="M7.32666 13.6128C7.14835 13.679 6.90561 13.8612 6.78874 14.0177C6.67037 14.1728 6.29428 14.8261 5.95115 15.4674C5.60802 16.1087 5.32782 16.7349 5.32782 16.8599C5.32782 16.9848 5.37359 17.1057 5.51512 17.1654C5.65664 17.2251 7.15135 16.9411 8.92393 16.5693C10.6965 16.1975 12.9546 15.7158 13.9435 15.499C14.9324 15.2822 16.1786 14.9627 16.3434 14.895C16.3799 14.88 16.5626 14.7849 16.3434 14.7299C16.2897 14.7117 15.8776 14.6533 15.2574 14.5655C14.4414 14.4499 13.265 14.2833 12.0705 14.09C9.9698 13.7498 8.11481 13.4758 7.94999 13.4818C7.78516 13.4878 7.50497 13.5466 7.32666 13.6128Z" fill="white"/>
</svg>
