<svg width="124" height="29" viewBox="0 0 124 29" fill="none" xmlns="http://www.w3.org/2000/svg">
<path d="M112.35 12.7C112.764 12.7 113.1 13.0358 113.1 13.45V15.45H115.1C115.514 15.45 115.85 15.7858 115.85 16.2C115.85 16.6142 115.514 16.95 115.1 16.95H113.1V18.95C113.1 19.3642 112.764 19.7 112.35 19.7C111.936 19.7 111.6 19.3642 111.6 18.95V16.95H109.6C109.186 16.95 108.85 16.6142 108.85 16.2C108.85 15.7858 109.186 15.45 109.6 15.45H111.6V13.45C111.6 13.0358 111.936 12.7 112.35 12.7Z" fill="black"/>
<path fill-rule="evenodd" clip-rule="evenodd" d="M104.592 19.3042C102.344 13.7867 106.403 7.75 112.361 7.75H112.682C117.138 7.75 120.75 11.362 120.75 15.8176C120.75 20.7785 116.728 24.8 111.768 24.8H103.947C103.629 24.8 103.346 24.5991 103.24 24.2989C103.134 23.9987 103.23 23.6645 103.478 23.4652L105.449 21.8819C105.535 21.8127 105.566 21.6951 105.524 21.5927L104.592 19.3042ZM112.361 9.25C107.468 9.25 104.135 14.2074 105.981 18.7383L106.913 21.0268C107.205 21.7435 106.992 22.5669 106.388 23.0515L106.079 23.3H111.768C115.9 23.3 119.25 19.95 119.25 15.8176C119.25 12.1904 116.31 9.25 112.682 9.25H112.361Z" fill="black"/>
<path d="M63.399 6.773V23H61.104V8.987H61.05L57.459 10.526L57 8.555L61.374 6.773H63.399Z" fill="#2B364A"/>
<path d="M63.399 6.773H63.599V6.573H63.399V6.773ZM63.399 23V23.2H63.599V23H63.399ZM61.104 23H60.904V23.2H61.104V23ZM61.104 8.987H61.304V8.787H61.104V8.987ZM61.05 8.987V8.787H61.0089L60.9712 8.80317L61.05 8.987ZM57.459 10.526L57.2642 10.5714L57.3184 10.8039L57.5378 10.7098L57.459 10.526ZM57 8.555L56.9245 8.36978L56.7665 8.43416L56.8052 8.60036L57 8.555ZM61.374 6.773V6.573H61.3348L61.2985 6.58778L61.374 6.773ZM63.199 6.773V23H63.599V6.773H63.199ZM63.399 22.8H61.104V23.2H63.399V22.8ZM61.304 23V8.987H60.904V23H61.304ZM61.104 8.787H61.05V9.187H61.104V8.787ZM60.9712 8.80317L57.3802 10.3422L57.5378 10.7098L61.1288 9.17083L60.9712 8.80317ZM57.6538 10.4806L57.1948 8.50964L56.8052 8.60036L57.2642 10.5714L57.6538 10.4806ZM57.0755 8.74022L61.4495 6.95822L61.2985 6.58778L56.9245 8.36978L57.0755 8.74022ZM61.374 6.973H63.399V6.573H61.374V6.973Z" fill="#2B364A"/>
<path d="M15.1 14.45C15.5142 14.45 15.85 14.7858 15.85 15.2C15.85 15.6142 15.5142 15.95 15.1 15.95H9.60001C9.1858 15.95 8.85001 15.6142 8.85001 15.2C8.85001 14.7858 9.1858 14.45 9.60001 14.45H15.1Z" fill="black"/>
<path fill-rule="evenodd" clip-rule="evenodd" d="M4.59188 18.3042C2.34402 12.7867 6.40312 6.75 12.3609 6.75H12.6824C17.138 6.75 20.75 10.362 20.75 14.8176C20.75 19.7785 16.7285 23.8 11.7676 23.8H3.94737C3.62911 23.8 3.34551 23.5991 3.23988 23.2989C3.13425 22.9987 3.2296 22.6645 3.47775 22.4652L5.44924 20.8819C5.53544 20.8127 5.56593 20.6951 5.52422 20.5927L4.59188 18.3042ZM12.3609 8.25C7.4684 8.25 4.13508 13.2074 5.98102 17.7383L6.91336 20.0268C7.20536 20.7435 6.9919 21.5669 6.38848 22.0515L6.07904 22.3H11.7676C15.9 22.3 19.25 18.95 19.25 14.8176C19.25 11.1904 16.3096 8.25 12.6824 8.25H12.3609Z" fill="black"/>
</svg>
