<svg   width="65" height="49" viewBox="0 0 65 49" fill="none" xmlns="http://www.w3.org/2000/svg">
<path d="M0 0.0992432H59C62.3137 0.0992432 65 2.78553 65 6.09924V42.0992C65 45.413 62.3137 48.0992 59 48.0992H0V0.0992432Z" fill="#F1F5F2"/>
<path  d="M37.3478 28.9143L36.304 27.837L37.3478 28.9143ZM49.0805 39.9159C49.735 40.4238 50.6773 40.3049 51.1851 39.6503C51.6929 38.9958 51.574 38.0535 50.9195 37.5457L49.0805 39.9159ZM28.3363 30.9591C22.2092 30.9591 17.5 26.4898 17.5 21.2792H14.5C14.5 28.4176 20.837 33.9591 28.3363 33.9591V30.9591ZM17.5 21.2792C17.5 16.0686 22.2092 11.5992 28.3363 11.5992V8.59924C20.837 8.59924 14.5 14.1408 14.5 21.2792H17.5ZM28.3363 11.5992C34.4633 11.5992 39.1726 16.0686 39.1726 21.2792H42.1726C42.1726 14.1408 35.8355 8.59924 28.3363 8.59924V11.5992ZM39.1726 21.2792C39.1726 23.7875 38.1029 26.094 36.304 27.837L38.3917 29.9915C40.7174 27.738 42.1726 24.6748 42.1726 21.2792H39.1726ZM36.304 27.837C34.3368 29.7432 31.5085 30.9591 28.3363 30.9591V33.9591C32.2757 33.9591 35.8563 32.4483 38.3917 29.9915L36.304 27.837ZM36.4283 30.0994L49.0805 39.9159L50.9195 37.5457L38.2673 27.7292L36.4283 30.0994Z" fill="#353535"/>
</svg>
