<svg width="19" height="19" viewBox="0 0 19 19" fill="none" xmlns="http://www.w3.org/2000/svg">
<path d="M8.05745 2.80997C7.42618 4.00626 6.18477 6.39249 5.29804 8.11269C5.2012 8.30101 5.10303 8.4911 5.00523 8.68049L5.00472 8.68147C4.20934 10.2216 3.43824 11.7148 3.59866 11.8298C3.74456 11.9345 5.08478 10.8066 6.63123 9.50503L6.63162 9.5047C6.9949 9.19895 7.36956 8.88364 7.74278 8.57247C9.80336 6.95621 11.4657 5.5577 11.5523 5.3668C11.6817 5.19749 11.8612 4.95063 11.8612 4.51368C11.8612 3.92826 11.4734 2.93724 10.8126 1.96154C10.3059 1.21279 9.85346 0.687561 9.57032 0.687561C9.28718 0.687561 8.8175 1.36763 8.05745 2.80997Z" fill="white"/>
<path d="M10.0595 11.6318C10.3798 11.9507 11.8637 12.5316 14.3065 13.4585C14.5288 13.5432 14.7486 13.627 14.9639 13.7091L14.964 13.7091C16.7174 14.3775 18.18 14.935 18.4131 14.9765C18.7742 15.0402 18.8882 14.9574 18.8882 14.635C18.8882 14.4017 17.5882 12.3932 16.1083 10.1236C15.6528 9.42581 15.2388 8.76331 14.8743 8.18012C14.0544 6.86825 13.4854 5.95764 13.2596 5.94918C12.9911 5.93912 12.4693 6.58957 11.7597 7.47422C11.6073 7.66421 11.4462 7.86501 11.2771 8.07239C11.1454 8.23419 11.0196 8.38686 10.9004 8.53151C10.1365 9.45826 9.64406 10.0557 9.6218 10.6148C9.59783 11.2165 9.96508 11.5466 10.0464 11.6197C10.0525 11.6251 10.0569 11.6292 10.0595 11.6318Z" fill="white"/>
<path d="M2.91444 13.7717C2.6632 13.8651 2.32118 14.1217 2.1565 14.3423C1.98971 14.5608 1.45979 15.4813 0.976314 16.3849C0.492838 17.2885 0.0980339 18.1709 0.0980339 18.3469C0.0980339 18.523 0.162528 18.6934 0.36194 18.7775C0.561352 18.8616 2.66743 18.4615 5.16503 17.9376C7.66264 17.4137 10.8443 16.7349 12.2377 16.4295C13.6312 16.124 15.387 15.6739 15.6192 15.5784C15.6707 15.5573 15.9281 15.4233 15.6192 15.3457C15.5435 15.3201 14.9629 15.2379 14.089 15.1141C12.9392 14.9513 11.2817 14.7165 9.59866 14.4441C6.63869 13.9648 4.02496 13.5787 3.79272 13.5872C3.56049 13.5957 3.16568 13.6784 2.91444 13.7717Z" fill="white"/>
</svg>
